<?xml version="1.0" standalone="no"?><!DOCTYPE svg PUBLIC "-//W3C//DTD SVG 1.1//EN" "http://www.w3.org/Graphics/SVG/1.1/DTD/svg11.dtd"><svg t="1582976184859" class="icon" viewBox="0 0 1024 1024" version="1.1" xmlns="http://www.w3.org/2000/svg" p-id="5090" xmlns:xlink="http://www.w3.org/1999/xlink" width="200" height="200"><defs><style type="text/css"></style></defs><path d="M794.074715 453.631121c-8.760794 0-16.227758 7.103483-16.227758 15.864277l0 23.726941-17.597104 0c-3.150503-59.538361-26.713324-113.745334-63.791389-155.759086l13.927055-13.927055 17.133943 17.133943c3.098145 3.098145 7.157854 4.647722 11.216555 4.647722 4.058701 0 8.117403-1.549576 11.216555-4.647722 6.197298-6.197298 6.197298-16.235813 0-22.432103l-56.69294-56.69294c-6.197298-6.197298-16.235813-6.197298-22.432103 0-6.196291 6.197298-6.196291 16.235813 0 22.432103l17.126894 17.126894-13.905911 13.905911c-42.472886-37.627817-97.470254-61.411143-157.865463-64.199172l0-19.255422 23.969597 0c8.760794 0 15.864277-6.9595 15.864277-15.720294 0-8.760794-7.103483-15.720294-15.864277-15.720294l-79.31937 0c-8.760794 0-15.864277 6.9595-15.864277 15.720294 0 8.760794 7.103483 15.720294 15.864277 15.720294l23.909185 0 0 19.702473c-57.541734 4.342639-109.830615 27.771546-150.567654 63.94242l-14.092182-14.093189 17.131929-17.128908c6.197298-6.189243 6.197298-16.235813 0-22.432103-6.197298-6.197298-16.235813-6.197298-22.432103 0L258.079443 318.238037c-6.197298 6.189243-6.197298 16.235813 0 22.432103 3.098145 3.098145 7.157854 4.647722 11.216555 4.647722 4.058701 0 8.117403-1.549576 11.216555-4.647722l17.134949-17.132936 14.138498 14.139505c-36.97033 41.983546-60.456628 96.107956-63.602097 155.544622l-25.109376 0 0-23.726941c0-8.760794-6.9595-15.864277-15.720294-15.864277-8.760794 0-15.720294 7.103483-15.720294 15.864277l0 79.31937c0 8.760794 6.9595 15.864277 15.720294 15.864277 8.760794 0 15.720294-7.103483 15.720294-15.864277l0-24.151841 25.366129 0c3.991241 58.125719 27.439278 110.980463 63.866904 152.095079l-14.660058 14.660058-17.134949-17.132936c-6.197298-6.197298-16.235813-6.197298-22.432103 0-6.197298 6.196291-6.197298 16.243868 0 22.432103l56.700995 56.69294c3.098145 3.098145 7.156847 4.647722 11.216555 4.647722 4.058701 0 8.117403-1.549576 11.216555-4.647722 6.197298-6.197298 6.197298-16.243868 0-22.432103l-17.131929-17.128908 14.679188-14.679188c22.61032 19.953184 48.749726 35.988629 77.354963 47.03603l-34.972695 86.709811c-0.143983 0.35744-0.257759 0.719914-0.37355 1.081381L270.464976 833.996187c-8.760794 0-15.864277 7.466963-15.864277 16.227758 0 8.760794 7.103483 16.227758 15.864277 16.227758l460.051944 0c8.760794 0 15.864277-7.466963 15.864277-16.227758 0-8.760794-7.103483-16.227758-15.864277-16.227758l-92.170079 0c-0.143983-0.448058-0.301055-0.895109-0.488333-1.337126l-37.318707-88.130508c26.868382-10.93161 51.477343-26.290437 72.919691-45.171303l14.49191 14.492917-17.126894 17.126894c-6.196291 6.196291-6.196291 16.235813 0 22.432103 3.098145 3.098145 7.157854 4.647722 11.216555 4.647722 4.058701 0 8.117403-1.549576 11.216555-4.647722l56.69294-56.69294c6.197298-6.197298 6.197298-16.235813 0-22.432103-6.197298-6.197298-16.235813-6.197298-22.432103 0l-17.133943 17.133943-14.447608-14.447608c36.535361-41.145828 60.0569-94.082129 64.055189-152.308536l17.853856 0 0 24.151841c0 8.760794 7.466963 15.864277 16.227758 15.864277s16.227758-7.103483 16.227758-15.864277l0-79.31937C810.302473 460.733597 802.835509 453.631121 794.074715 453.631121zM728.459881 493.221332 570.624625 493.221332c-1.588844-7.70962-4.49065-14.946009-8.460746-21.463493l111.830263-111.830263C705.377338 396.124628 725.387914 442.425641 728.459881 493.221332zM484.740448 730.743467c-10.306343-0.889068-20.418359-2.469857-30.283692-4.709141l30.283692-75.084466L484.740448 730.743467zM516.181036 626.687263l41.67645 98.420741c-13.46188 3.310595-27.391955 5.415965-41.67645 6.169105L516.181036 626.687263zM504.216375 542.997061c-19.891765 0-36.073207-16.181441-36.073207-36.073207 0-19.891765 16.181441-36.073207 36.073207-36.073207 19.891765 0 36.073207 16.181441 36.073207 36.073207 0 0.009062-0.001007 0.017117-0.001007 0.026179-0.082564 0.65346-0.138948 1.314975-0.138948 1.991593 0 0.21245 0.023158 0.418859 0.03222 0.629295C538.820556 528.230275 523.217059 542.997061 504.216375 542.997061zM651.582176 337.474328 539.80729 449.249214c-7.112545-4.405065-15.096033-7.521335-23.626254-9.047753L516.181036 282.569593C567.834582 285.293182 614.917935 305.545407 651.582176 337.474328zM484.740448 283.104242l0 158.88341c-5.821734 1.749944-11.313215 4.26209-16.363685 7.421654L356.637118 337.664627C391.548394 307.184595 435.939371 287.314981 484.740448 283.104242zM334.253344 360.14506l111.865504 111.870538c-3.890554 6.45103-6.742016 13.595794-8.309715 21.205733L279.973876 493.221332C283.038795 442.527335 302.977883 396.310899 334.253344 360.14506zM280.242711 524.66192l158.544094 0c1.729806 6.371487 4.36177 12.372444 7.758956 17.856877L334.770877 654.293682C304.034092 618.998788 284.118162 574.048997 280.242711 524.66192zM357.224124 676.704641l111.83127-111.83127c4.261083 2.594709 8.83631 4.716189 13.643117 6.329198l-58.712726 145.571554C399.36877 707.33067 376.813828 693.687553 357.224124 676.704641zM603.966187 833.996187 410.912558 833.996187l31.544296-78.209797c13.698495 3.400207 27.822897 5.710979 42.283594 6.802428l0 16.639568-23.909185 0c-8.760794 0-15.864277 6.9595-15.864277 15.720294 0 8.760794 7.103483 15.720294 15.864277 15.720294l79.31937 0c8.760794 0 15.864277-6.9595 15.864277-15.720294 0-8.760794-7.103483-15.720294-15.864277-15.720294l-23.969597 0 0-16.192517c18.647271-0.860876 36.778017-3.727441 54.187843-8.381203L603.966187 833.996187zM588.168364 715.311138l-61.1997-144.526421c4.26511-1.524404 8.335894-3.458606 12.159994-5.76535l111.864497 111.869531C632.445565 692.928371 611.2499 705.978441 588.168364 715.311138zM673.474596 654.505125 561.733944 542.759439c3.470688-5.549879 6.15803-11.632393 7.914015-18.097519l158.544094 0C724.30754 574.149684 704.317102 619.179018 673.474596 654.505125z" p-id="5091"></path><path d="M504.364385 16.445242c-277.725531 0-503.677699 225.951161-503.677699 503.677699s225.951161 503.677699 503.677699 503.677699 503.677699-225.951161 503.677699-503.677699S782.089916 16.445242 504.364385 16.445242zM504.364385 992.072086c-260.235156 0-471.950152-211.713989-471.950152-471.950152S244.128223 48.172789 504.364385 48.172789s471.950152 211.713989 471.950152 471.950152S764.599541 992.072086 504.364385 992.072086z" p-id="5092"></path></svg>