<?xml version="1.0" standalone="no"?><!DOCTYPE svg PUBLIC "-//W3C//DTD SVG 1.1//EN" "http://www.w3.org/Graphics/SVG/1.1/DTD/svg11.dtd"><svg t="1582976634896" class="icon" viewBox="0 0 1024 1024" version="1.1" xmlns="http://www.w3.org/2000/svg" p-id="7756" xmlns:xlink="http://www.w3.org/1999/xlink" width="200" height="200"><defs><style type="text/css"></style></defs><path d="M928 960l-832 0C43.072 960 0 916.928 0 864l0-704C0 107.072 43.072 64 96 64l832 0C980.928 64 1024 107.072 1024 160l0 704C1024 916.928 980.928 960 928 960zM96 128C78.336 128 64 142.336 64 160l0 704C64 881.6 78.336 896 96 896l832 0c17.6 0 32-14.4 32-32l0-704C960 142.336 945.6 128 928 128L96 128z" p-id="7757"></path><path d="M64 320.064l895.872 0 0 64-895.872 0 0-64Z" p-id="7758"></path><path d="M192 128.064l64 0 0 192-64 0 0-192Z" p-id="7759"></path><path d="M384 128.064l64 0 0 192-64 0 0-192Z" p-id="7760"></path><path d="M576 128.064l64 0 0 192-64 0 0-192Z" p-id="7761"></path><path d="M768 128.064l64 0 0 192-64 0 0-192Z" p-id="7762"></path><path d="M438.208 519.36C400.32 500.416 384 519.552 384 561.984l0 153.728c0 42.368 16.32 61.504 54.208 42.496l162.88-85.12c37.888-19.008 41.472-49.92 3.712-68.672L438.208 519.36z" p-id="7763"></path></svg>