<?xml version="1.0" standalone="no"?><!DOCTYPE svg PUBLIC "-//W3C//DTD SVG 1.1//EN" "http://www.w3.org/Graphics/SVG/1.1/DTD/svg11.dtd"><svg t="1582976648347" class="icon" viewBox="0 0 1024 1024" version="1.1" xmlns="http://www.w3.org/2000/svg" p-id="8696" xmlns:xlink="http://www.w3.org/1999/xlink" width="200" height="200"><defs><style type="text/css"></style></defs><path d="M808.229 214.049c-79.292-79.335-184.748-122.988-296.916-122.988-112.186 0-217.641 43.651-296.935 122.988-79.315 79.315-123.009 184.748-123.009 296.916 0 112.187 43.695 217.642 123.009 296.957 79.294 79.315 184.748 123.009 296.935 123.009 112.168 0 217.624-43.695 296.916-123.009 79.335-79.314 123.009-184.77 123.009-296.957 0-112.167-43.674-217.6-123.009-296.916zM876.465 510.965c0-2.387-0.297-4.73-0.339-7.116-89.35 1.939-173.457 34.512-240.523 92.715l-86.621-86.621 237.966-237.945c57.713 66.382 89.519 150.149 89.519 238.966zM635.646 674.046l113.551 113.552c-54.049 46.635-119.58 75.863-189.949 85.067 2.557-70.963 27.909-141.244 76.398-198.618zM510.27 471.211l-84.598-84.578c59.758-68.982 90.287-154.476 92.268-240.48 85.366 1.512 165.831 32.148 230.169 87.219l-237.838 237.839zM483.598 147.177c-6.774 0.595-13.507 1.257-20.217 2.152 6.711-0.895 13.421-1.641 20.217-2.152zM463.36 149.328c-2.557 70.942-27.908 141.202-76.396 198.575l-113.552-113.551c-6.903 5.944-13.805 11.909-20.303 18.428 57.501-57.52 130.913-93.099 210.251-103.452zM234.682 273.084l113.572 113.572c-55.817 47.295-125.077 73.988-198.64 76.546 9.161-70.411 38.391-136.006 85.069-190.118zM146.142 510.965c0 2.407 0.298 4.75 0.34 7.136 89.35-1.939 173.457-34.512 240.502-92.715l84.556 84.556-237.859 237.837c6.242 7.308 12.548 14.55 19.429 21.412-68.983-68.962-106.968-160.675-106.968-258.226zM149.614 463.222c-0.873 6.646-1.534 13.357-2.13 20.068 0.511-6.731 1.257-13.421 2.13-20.068zM272.305 786.616l237.966-237.945 86.646 86.644c-59.759 69.004-90.289 154.496-92.248 240.502 2.216 0.041 4.411 0.339 6.646 0.339-88.838 0.001-172.627-31.828-239.009-89.541zM559.248 872.664c-6.732 0.874-13.462 1.619-20.26 2.132 6.775-0.576 13.529-1.257 20.26-2.132zM787.926 748.888l-113.592-113.594c55.818-47.294 125.096-73.987 198.659-76.545-9.161 70.432-38.391 136.027-85.068 190.138zM875.125 538.66c-0.511 6.732-1.258 13.401-2.109 20.047 0.852-6.646 1.513-13.336 2.109-20.047z" p-id="8697"></path></svg>