<?xml version="1.0" standalone="no"?><!DOCTYPE svg PUBLIC "-//W3C//DTD SVG 1.1//EN" "http://www.w3.org/Graphics/SVG/1.1/DTD/svg11.dtd"><svg t="1582976661734" class="icon" viewBox="0 0 1024 1024" version="1.1" xmlns="http://www.w3.org/2000/svg" p-id="9591" xmlns:xlink="http://www.w3.org/1999/xlink" width="200" height="200"><defs><style type="text/css"></style></defs><path d="M901.248 484.57216a32.1024 32.1024 0 0 0 3.7632-15.24224 32.65024 32.65024 0 0 0-16.88576-28.7232 31.488 31.488 0 0 0-15.90272-4.1472 32.74752 32.74752 0 0 0-27.91424 15.48288c-24.81664-9.41056-51.00544-13.90592-77.38368-13.84448-59.77088 0-120.82176 22.69184-174.13632 63.29344l13.1584 29.53216a48.9984 48.9984 0 0 1 9.5744-0.9728c7.552 0.04096 14.46912 1.7664 20.80256 5.28384 9.7536 5.46304 16.6144 14.46912 20.66944 26.6752l4.71552 14.80192 15.09888-3.80416a51.54304 51.54304 0 0 1 12.79488-1.58208c7.48544 0 14.37184 1.6128 20.72064 5.20704 9.62048 5.38112 16.52224 14.44864 20.58752 26.69568l4.69504 14.7968 15.05792-3.80416a40.71936 40.71936 0 0 1 9.856-1.19296c4.0704 0 8.4224 0.74752 13.12256 2.23232l-109.10208 198.6048c-37.97504-7.38816-80.26112-12.5952-125.17376-12.63104-30.03904 0.03584-58.92096 2.36544-86.1696 6.07232l-58.7776-406.84544c10.9056 1.43872 18.96448 5.18144 27.83232 12.14464l12.89728 10.42432 10.52672-12.87168c13.3376-16.37888 29.9776-26.68032 48.90112-29.33248a62.17728 62.17728 0 0 1 9.61536-0.71168c15.744 0 31.27296 5.38624 45.68064 15.44704l12.69248 8.9088 9.7536-12.0064c13.3376-16.39424 29.98272-26.69568 49.07008-29.3888a67.07712 67.07712 0 0 1 9.52832-0.64512c18.72384 0 37.38624 7.60832 53.82656 21.8624l25.2416-20.80768c-74.81344-130.21184-196.8896-214.82496-329.2672-215.32672v-0.50688c0-1.78176-0.1024-3.584-0.36352-5.56544a41.09824 41.09824 0 0 0-40.68352-35.36384c-2.00192 0-3.92704 0.1024-5.86752 0.40448-20.36224 2.8928-35.26144 20.32128-35.31776 40.64256 0 2.00192 0.13824 3.98848 0.44544 5.888a32.256 32.256 0 0 0 0.95232 4.87936c-125.53728 33.792-219.92448 144.00512-259.01056 284.88192l28.27776 15.64672c12.69248-13.94688 28.09344-22.76864 45.55776-25.20064a69.12 69.12 0 0 1 9.51296-0.64512c15.74912 0 31.3344 5.34016 45.72672 15.38048l12.69248 8.92416 9.71776-12.04224c13.30176-16.3328 29.93664-26.5984 49.00352-29.29152a70.23104 70.23104 0 0 1 9.45152-0.70656c15.72864 0.06144 31.37024 5.38112 45.76256 15.48288l12.69248 8.92928 9.77408-12.06272c9.69728-11.84256 22.40512-20.80768 42.12224-25.30304l59.26912 410.14784c-103.3728 19.2512-175.3088 56.13056-176.2816 56.53504a16.64512 16.64512 0 0 0-8.58112 18.68288 16.60928 16.60928 0 0 0 16.13312 12.69248h575.42144a16.57344 16.57344 0 0 0 16.128-12.69248 16.57344 16.57344 0 0 0-8.58624-18.68288c-0.82944-0.36352-54.81472-28.03712-136.27904-47.93344l102.5792-186.65984c1.45408 2.59072 2.48832 5.38624 3.47648 8.82688l3.98848 16.128 16.1536-3.96288c4.4288-1.11616 8.74496-1.6384 13.01504-1.6384 7.4496 0 14.26944 1.67936 20.5056 5.16096 9.71264 5.504 16.68096 14.5152 20.66432 26.7008l4.71552 14.67392 14.98624-3.59936a52.97152 52.97152 0 0 1 12.96896-1.60256c7.44448 0 14.33088 1.67936 20.68992 5.16096 11.17184 6.33856 18.8416 17.536 22.1184 32.78848l32.73728-1.31072c1.83808-14.75584 2.83136-29.35296 2.83136-43.80672 0.06656-81.57184-30.23872-156.7488-88.57088-203.56608zM338.54464 139.98592c0.54272-0.1024 0.84992-0.1024 1.152-0.1024h0.06144c3.74272 0 7.20384 2.8928 7.71072 6.88128 0.04096 0.2048 0.1024 0.4864 0.1024 0.89088 0 1.68448-0.85504 3.78368-2.9952 5.79072l-3.84512 3.46112-4.63872-2.48832c-2.85696-1.60256-3.98848-3.2768-4.29056-5.48352-0.1024-0.4864-0.1024-0.89088-0.1024-1.19296 0.02048-3.77344 2.9184-7.2704 6.84544-7.7568z m-35.2 256.13312c-16.128-8.76544-33.96096-13.86496-52.48512-13.78304-4.6336 0-9.35424 0.2816-14.14656 0.95232-23.3216 3.2768-43.86304 14.42816-60.22144 30.41792-16.09216-8.72448-33.82272-13.70112-52.26496-13.70112-4.6336 0-9.34912 0.30208-14.18752 0.98816-7.6288 1.05472-14.99648 2.95936-21.95968 5.59104 45.96736-117.60128 134.17984-201.6 243.13856-221.19936l10.60352-1.94048 15.2832-1.2544a292.53632 292.53632 0 0 1 22.65088-0.89088c101.248-0.1024 198.76864 55.96672 269.00992 149.45792-5.888-0.98816-11.86304-1.536-17.87392-1.536-4.65408 0-9.39008 0.30208-14.20288 0.98816-23.30112 3.3024-43.92448 14.45376-60.28288 30.42304-16.0256-8.704-33.7408-13.7472-52.23936-13.7472-4.67968 0-9.45152 0.36352-14.29504 0.99328-23.0144 3.17952-43.39712 14.24896-59.66848 29.99296-13.25568-7.48544-28.49792-11.51488-45.21984-11.37152-6.27712 0-12.8512 0.50688-19.77344 1.49504-25.81504 3.5072-46.54592 13.87008-61.86496 28.12416z m436.25472 471.25504H339.18976a721.5616 721.5616 0 0 1 86.04672-21.76l0.2048 1.58208 32.8704-4.69504-0.34304-2.24768c25.82528-3.52256 53.17632-5.77024 81.42848-5.72928 77.04064 0 147.39456 16.09216 198.30272 32.26624 0.68608 0.19456 1.31072 0.3584 1.89952 0.58368z m208.6912-195.85536c-11.47904-6.44096-24.14592-9.43616-36.70016-9.43616h-0.13824c-2.20672 0-4.39296 0.08192-6.57408 0.26112-6.784-13.16864-16.9472-24.63232-30.52544-32.22016-11.45856-6.45632-24.21248-9.37472-36.74112-9.37472-2.10432 0-4.15232 0.04608-6.25664 0.18432-6.3488-12.24704-17.01888-22.60992-30.97088-30.0544-13.33248-7.49056-26.94144-11.05408-39.8336-11.008-1.21344 0-2.28352 0-3.44064 0.08192-6.73792-13.30176-16.98304-24.82176-30.6432-32.42496a75.35616 75.35616 0 0 0-36.85376-9.37472c-2.17088 0-4.37248 0.08192-6.56384 0.22016-6.79424-13.11744-16.9216-24.52992-30.49472-32.1024-1.28512-0.68608-2.57536-1.37728-3.87584-1.98144 38.55872-21.67808 79.34976-33.03424 118.25152-33.03424 29.18912 0 57.28256 6.33344 83.25632 19.47136l6.0928 3.07712 8.36096 5.3248c56.3712 35.74272 88.7552 101.10464 91.72992 177.55648a75.60704 75.60704 0 0 0-8.07936-5.16608z" p-id="9592"></path></svg>