<?xml version="1.0" standalone="no"?><!DOCTYPE svg PUBLIC "-//W3C//DTD SVG 1.1//EN" "http://www.w3.org/Graphics/SVG/1.1/DTD/svg11.dtd"><svg t="1582976755870" class="icon" viewBox="0 0 1024 1024" version="1.1" xmlns="http://www.w3.org/2000/svg" p-id="11283" xmlns:xlink="http://www.w3.org/1999/xlink" width="200" height="200"><defs><style type="text/css"></style></defs><path d="M590.848 500.394667a51.2 51.2 0 0 1-34.133333-13.141334l-54.613334-47.445333a53.077333 53.077333 0 0 1-5.632-73.045333L705.877333 125.610667A53.077333 53.077333 0 0 1 778.922667 119.466667l55.125333 47.957333a53.248 53.248 0 0 1 5.802667 73.045333l-209.578667 242.346667a51.2 51.2 0 0 1-35.84 17.066667z m154.624-341.333334h-1.024l-209.066667 240.64a2.218667 2.218667 0 0 0 0 1.536l55.296 47.957334h1.024l208.896-241.152a2.218667 2.218667 0 0 0 0-1.536l-54.613333-47.445334zM161.621333 914.602667a146.432 146.432 0 0 1-27.306666-2.56 55.978667 55.978667 0 0 1-43.178667-37.205334A57.514667 57.514667 0 0 1 103.424 819.2L426.666667 445.952a24.917333 24.917333 0 0 1 35.669333-2.218667l92.16 80.042667A25.258667 25.258667 0 0 1 563.2 546.133333l-1.536 9.898667c-8.704 71.68-130.901333 224.256-215.722667 285.354667-28.672 20.48-102.4 68.266667-173.568 73.216h-10.752z m9.045334-25.770667zM459.264 508.586667a13.824 13.824 0 0 0-19.626667 1.365333L141.994667 852.309333a7.509333 7.509333 0 0 0-2.218667 6.656s0 2.048 4.778667 2.901334a99.669333 99.669333 0 0 0 23.893333 1.365333c40.106667-2.901333 95.061333-26.624 147.456-63.829333 73.216-52.736 172.373333-177.322667 191.658667-237.397334a14.165333 14.165333 0 0 0-4.096-15.018666z" p-id="11284"></path><path d="M454.997333 930.133333h-102.4a25.6 25.6 0 1 1 0-51.2h102.4a25.6 25.6 0 0 1 0 51.2zM634.197333 930.133333h-102.4a25.6 25.6 0 1 1 0-51.2h102.4a25.6 25.6 0 0 1 0 51.2zM813.397333 930.133333h-102.4a25.6 25.6 0 0 1 0-51.2h102.4a25.6 25.6 0 0 1 0 51.2z" opacity=".6" p-id="11285"></path></svg>