<?xml version="1.0" standalone="no"?><!DOCTYPE svg PUBLIC "-//W3C//DTD SVG 1.1//EN" "http://www.w3.org/Graphics/SVG/1.1/DTD/svg11.dtd"><svg t="1582975068919" class="icon" viewBox="0 0 1024 1024" version="1.1" xmlns="http://www.w3.org/2000/svg" p-id="24394" xmlns:xlink="http://www.w3.org/1999/xlink" width="200" height="200"><defs><style type="text/css"></style></defs><path d="M749.9 869.1H272.7c-83.6 0-151.5-68-151.5-151.5V403.3c0-13.8 11.2-25 25-25s25 11.2 25 25v314.2c0 56 45.6 101.5 101.5 101.5h477.2c56 0 101.5-45.6 101.5-101.5V240.3c0-56-45.6-101.5-101.5-101.5H272.7c-56 0-101.5 45.6-101.5 101.5v40.8c0 13.8-11.2 25-25 25s-25-11.2-25-25v-40.8c0-83.6 68-151.5 151.5-151.5h477.2c83.6 0 151.5 68 151.5 151.5v477.2c0.1 83.6-67.9 151.6-151.5 151.6z" p-id="24395"></path><path d="M856.8 647.5H167.6c-13.8 0-25-11.2-25-25s11.2-25 25-25h689.2c13.8 0 25 11.2 25 25s-11.2 25-25 25zM672.2 249.6h-320c-13.8 0-25-11.2-25-25s11.2-25 25-25h320c13.8 0 25 11.2 25 25s-11.2 25-25 25z" p-id="24396"></path><path d="M302.6 725.4m-31.7 0a31.7 31.7 0 1 0 63.4 0 31.7 31.7 0 1 0-63.4 0Z" p-id="24397"></path><path d="M727.3 725.4m-31.7 0a31.7 31.7 0 1 0 63.4 0 31.7 31.7 0 1 0-63.4 0Z" p-id="24398"></path><path d="M302.6 939.6c-13.8 0-25-11.2-25-25v-70.5c0-13.8 11.2-25 25-25s25 11.2 25 25v70.5c0 13.8-11.1 25-25 25zM727.3 939.6c-13.8 0-25-11.2-25-25v-70.5c0-13.8 11.2-25 25-25s25 11.2 25 25v70.5c0 13.8-11.2 25-25 25z" p-id="24399"></path></svg>