<?xml version="1.0" standalone="no"?><!DOCTYPE svg PUBLIC "-//W3C//DTD SVG 1.1//EN" "http://www.w3.org/Graphics/SVG/1.1/DTD/svg11.dtd"><svg t="1582975125427" class="icon" viewBox="0 0 1024 1024" version="1.1" xmlns="http://www.w3.org/2000/svg" p-id="27323" xmlns:xlink="http://www.w3.org/1999/xlink" width="200" height="200"><defs><style type="text/css"></style></defs><path d="M467.4 467.3c-6.4 0-12.8-2.4-17.7-7.3L256.5 266.7c-18-18-27.9-41.9-27.9-67.4 0-25.5 9.9-49.4 27.9-67.4 16.4-16.4 37.3-27 60.2-30.4 23-3.5 46 0.4 66.6 11.2L631 243.3l73-73c18.9-18.9 48.9-32.1 82.6-36.4 16.7-2.1 58-4.6 80.7 18.1 22.7 22.7 20.2 64 18.1 80.7-4.3 33.6-17.6 63.7-36.4 82.6l-76.3 76.3c-9.8 9.8-25.6 9.8-35.4 0-9.8-9.8-9.8-25.6 0-35.4l76.3-76.3c10.7-10.7 19.2-30.9 22.1-52.8 3.2-23.8-1.6-37.5-3.7-39.8-2.3-2.1-15.9-6.9-39.7-3.7-21.9 2.9-42.1 11.4-52.8 22.1l-86.1 86.1c-7.7 7.7-19.6 9.5-29.3 4.4L359.9 157c-22.6-11.9-50-7.8-68.1 10.3-17.7 17.7-17.7 46.4 0 64.1L485 424.6c9.8 9.8 9.8 25.6 0 35.4-4.8 4.9-11.2 7.3-17.6 7.3z" p-id="27324"></path><path d="M286 818c-25.3 0-47.2-7.9-62-22.7-19.1-19.1-26.7-50-20.7-84.6 5.1-29.9 19.8-59.3 39.1-78.6l284-284c9.8-9.8 25.6-9.8 35.4 0 9.8 9.8 9.8 25.6 0 35.4l-284 284c-12.1 12.1-21.8 32-25.2 51.7-3.1 18.2-0.6 33.4 6.8 40.8s22.6 9.9 40.8 6.8c19.8-3.4 39.6-13 51.7-25.2l283.7-283.7c9.8-9.8 25.6-9.8 35.4 0 9.8 9.8 9.8 25.6 0 35.4L387.2 776.9c-19.4 19.4-48.8 34-78.6 39.1-7.8 1.4-15.4 2-22.6 2z" p-id="27325"></path><path d="M244.2 696.2c-6.4 0-12.8-2.4-17.7-7.3L121.1 583.5c-21.1-21.1-25.7-51.8-11.8-78.2 13.9-26.3 41.8-39.8 71.1-34.3l198.7 35.8c13.6 2.4 22.6 15.4 20.2 29-2.4 13.6-15.4 22.6-29 20.2l-198.8-35.8h-0.2c-10.8-2.1-16 5.3-17.7 8.5s-4.9 11.6 2.9 19.4l105.4 105.4c9.8 9.8 9.8 25.6 0 35.4-4.9 4.9-11.3 7.3-17.7 7.3zM485.2 920.7c-17 0-33.7-6.7-46.7-19.7L333.2 795.6c-9.8-9.8-9.8-25.6 0-35.4 9.8-9.8 25.6-9.8 35.4 0L474 865.6c7.8 7.8 16.2 4.6 19.4 2.9 3.2-1.7 10.5-6.8 8.6-17.5l-41.5-195.9c-2.9-13.5 5.8-26.8 19.3-29.6 13.5-2.9 26.8 5.8 29.6 19.3L550.9 841c0 0.2 0.1 0.3 0.1 0.5 5.6 29.3-7.9 57.3-34.3 71.2-10.1 5.4-20.9 8-31.5 8zM825.5 785.1c-25.5 0-49.4-9.9-67.4-27.9L564.8 563.9c-9.8-9.8-9.8-25.6 0-35.4 9.8-9.8 25.6-9.8 35.4 0l193.2 193.2c8.6 8.6 19.9 13.3 32.1 13.3 12.1 0 23.5-4.7 32.1-13.3 18.1-18.1 22.2-45.5 10.3-68.1l-139.2-264c-6.4-12.2-1.8-27.3 10.5-33.8 12.2-6.4 27.3-1.8 33.8 10.5l139.2 264.1C923 651 926.9 674 923.4 697c-3.5 23-14 43.8-30.4 60.2-18.1 18-42 27.9-67.5 27.9z" p-id="27326"></path></svg>