<?xml version="1.0" standalone="no"?><!DOCTYPE svg PUBLIC "-//W3C//DTD SVG 1.1//EN" "http://www.w3.org/Graphics/SVG/1.1/DTD/svg11.dtd"><svg t="1582975740279" class="icon" viewBox="0 0 1024 1024" version="1.1" xmlns="http://www.w3.org/2000/svg" p-id="2283" xmlns:xlink="http://www.w3.org/1999/xlink" width="200" height="200"><defs><style type="text/css"></style></defs><path d="M682.666667 725.333333a42.666667 42.666667 0 0 0 42.666666-42.666666 58.026667 58.026667 0 0 0 0-8.533334 27.306667 27.306667 0 0 0-2.56-7.68 32.426667 32.426667 0 0 0-3.84-7.68l-5.12-6.4a49.066667 49.066667 0 0 0-14.08-8.96 42.666667 42.666667 0 0 0-32.426666 0 49.066667 49.066667 0 0 0-14.08 8.96l-5.12 6.4a32.426667 32.426667 0 0 0-3.84 7.68 27.306667 27.306667 0 0 0-2.56 7.68 58.026667 58.026667 0 0 0 0 8.533334 42.666667 42.666667 0 0 0 42.666666 42.666666z m85.333333-640H256a128 128 0 0 0-128 128v512a128 128 0 0 0 51.2 101.973334l-38.826667 38.4a42.666667 42.666667 0 0 0 0 60.586666 42.666667 42.666667 0 0 0 60.586667 0L273.493333 853.333333h477.013334l72.533333 72.96a42.666667 42.666667 0 0 0 60.586667 0 42.666667 42.666667 0 0 0 0-60.586666l-38.826667-38.4A128 128 0 0 0 896 725.333333V213.333333a128 128 0 0 0-128-128zM213.333333 341.333333h256v170.666667H213.333333z m597.333334 384a42.666667 42.666667 0 0 1-42.666667 42.666667H256a42.666667 42.666667 0 0 1-42.666667-42.666667v-128h597.333334z m0-213.333333h-256V341.333333h256z m0-256H213.333333V213.333333a42.666667 42.666667 0 0 1 42.666667-42.666666h512a42.666667 42.666667 0 0 1 42.666667 42.666666zM341.333333 725.333333a42.666667 42.666667 0 0 0 42.666667-42.666666 58.026667 58.026667 0 0 0 0-8.533334 27.306667 27.306667 0 0 0-2.56-7.68 32.426667 32.426667 0 0 0-3.84-7.68l-5.12-6.4a49.066667 49.066667 0 0 0-14.08-8.96 42.666667 42.666667 0 0 0-32.426667 0 49.066667 49.066667 0 0 0-14.08 8.96l-5.12 6.4a32.426667 32.426667 0 0 0-3.84 7.68 27.306667 27.306667 0 0 0-4.266666 7.68 58.026667 58.026667 0 0 0 0 8.533334 42.666667 42.666667 0 0 0 12.373333 29.866666A42.666667 42.666667 0 0 0 341.333333 725.333333z" p-id="2284"></path></svg>