<?xml version="1.0" standalone="no"?><!DOCTYPE svg PUBLIC "-//W3C//DTD SVG 1.1//EN" "http://www.w3.org/Graphics/SVG/1.1/DTD/svg11.dtd"><svg t="1582975137315" class="icon" viewBox="0 0 1024 1024" version="1.1" xmlns="http://www.w3.org/2000/svg" p-id="27914" xmlns:xlink="http://www.w3.org/1999/xlink" width="200" height="200"><defs><style type="text/css"></style></defs><path d="M804.692179 701.976796c-36.572964 0-66.327638-29.754674-66.327638-66.327638s29.754674-66.327638 66.327638-66.327638 66.327638 29.754674 66.327638 66.327638S841.265142 701.976796 804.692179 701.976796zM804.692179 604.971461c-16.916275 0-30.677697 13.761422-30.677697 30.677697s13.761422 30.677697 30.677697 30.677697 30.677697-13.761422 30.677697-30.677697S821.608453 604.971461 804.692179 604.971461z" p-id="27915"></path><path d="M213.131145 701.976796c-36.572964 0-66.326615-29.754674-66.326615-66.327638s29.753651-66.327638 66.326615-66.327638c36.570917 0 66.323545 29.754674 66.323545 66.327638S249.703085 701.976796 213.131145 701.976796zM213.131145 604.971461c-16.916275 0-30.677697 13.761422-30.677697 30.677697s13.762445 30.677697 30.677697 30.677697c16.914228 0 30.674627-13.761422 30.674627-30.677697S230.045373 604.971461 213.131145 604.971461z" p-id="27916"></path><path d="M828.41958 919.528624l-38.557154 0c-39.845497 0-72.261791-32.416294-72.261791-72.260767l0-40.771589L287.543925 806.496268l0 40.771589c0 39.845497-32.416294 72.260767-72.260767 72.260767l-38.557154 0c-39.845497 0-72.261791-32.416294-72.261791-72.260767l0-0.13303 0.337691-45.248553c-15.262612-4.704139-29.983895-13.039991-41.910529-23.934109-18.205641-16.629749-28.231995-37.544081-28.231995-58.892295l0.032746-1.078565 9.772574-161.200402c0.12996-19.814278 7.05365-39.152718 19.528775-54.514591l0.890276-1.096984 1.051959-0.942465c0.275269-0.24764 28.602432-25.864064 40.23333-50.176796 4.248767-8.879228 14.891152-12.634762 23.771403-8.387018 8.880251 4.247744 12.635785 14.891152 8.387018 23.771403-13.341866 27.889187-41.257659 54.568826-47.426149 60.268642-7.063883 9.119705-10.790764 20.034289-10.790764 31.647791l-0.032746 1.078565-9.767458 161.109328c0.37146 24.612561 29.140691 46.918589 54.881958 50.507324l15.47853 2.158153-0.558725 75.123978c0.033769 20.159132 16.444531 36.549427 36.611849 36.549427l38.557154 0c20.187785 0 36.611849-16.424064 36.611849-36.610826l0-76.42153 501.355569 0 0 76.42153c0 20.187785 16.424064 36.610826 36.611849 36.610826l38.557154 0c20.189831 0 36.614919-16.424064 36.614919-36.610826l0-76.42153 21.029966 0c14.703887 0 30.902824-6.104021 43.330878-16.327874 7.141654-5.875824 19.075451-18.185174 19.313881-34.948977l-10.854209-170.57491 0-0.566912c0-28.555359-23.232121-51.786457-51.789527-51.786457L199.723787 496.640174l-0.182149-0.00307c-8.251941-0.168846-20.835538-4.056386-29.140691-14.459317-8.275477-10.366092-10.69969-24.234961-7.206122-41.22082l0.093121-0.424672 62.161758-268.772396c4.842285-19.701714 12.896728-41.12463 47.376007-45.932122l1.224898-0.170892 154.841577 0L428.892187 107.156532c0-21.51092 17.500583-39.012526 39.011502-39.012526l82.983993 0c21.51092 0 39.012526 17.500583 39.012526 39.012526l0 18.502399 153.924695 0c27.091008 0 49.254797 21.502733 50.318012 48.336892l59.433624 286.996456 32.485879 0c48.01455 0 87.114057 38.900985 87.437421 86.838787l10.859325 170.662915 0 0.566912c0 44.828998-41.642422 79.505775-83.676771 86.24527l0 41.961694C900.68444 887.11233 868.2661 919.528624 828.41958 919.528624zM200.62532 460.991256l616.548124 0-58.638515-283.150872 0-1.826602c0-8.109702-6.597255-14.70798-14.70798-14.70798L564.846602 161.305803l-10.595312-12.165064 0-41.986253c0-1.854231-1.508353-3.362584-3.362584-3.362584l-82.983993 0c-1.854231 0-3.362584 1.508353-3.362584 3.362584l0 34.242895-1.559519 19.908422L276.574083 161.305803c-10.862395 1.648546-12.854772 4.14132-16.474206 18.839067l-62.025659 268.191158c-1.416256 7.024997-0.575098 10.565636 0.153496 11.555174 0.417509 0.566912 1.582031 0.949628 2.307555 1.083681l-0.630357 0.016373 0.652869-0.011256C200.581318 460.984093 200.603831 460.988186 200.62532 460.991256z" p-id="27917"></path></svg>