<?xml version="1.0" standalone="no"?><!DOCTYPE svg PUBLIC "-//W3C//DTD SVG 1.1//EN" "http://www.w3.org/Graphics/SVG/1.1/DTD/svg11.dtd"><svg t="1582975114161" class="icon" viewBox="0 0 1024 1024" version="1.1" xmlns="http://www.w3.org/2000/svg" p-id="26294" xmlns:xlink="http://www.w3.org/1999/xlink" width="200" height="200"><defs><style type="text/css"></style></defs><path d="M741.800291 752.754273c-4.02978 3.245927-8.762571 4.797259-13.510712 4.797259-6.299473 0-12.472056-2.686179-16.708544-7.962346-7.515161-9.209756-6.043646-22.768563 3.197832-30.219255 76.140121-61.637826 119.823016-152.967904 119.823016-250.582105 0-177.751357-144.718009-322.373175-322.597279-322.373175-177.86392 0-322.580906 144.621818-322.580906 322.373175 0 97.614202 43.682895 188.94428 119.823016 250.582105 9.274224 7.450692 10.69662 21.0095 3.229554 30.219255-7.515161 9.178033-21.025872 10.616802-30.252001 3.166109-86.261643-69.792553-135.780453-173.306114-135.780453-283.96747 0-201.447035 164.016541-365.352035 365.559766-365.352035 201.559599 0 365.576139 163.905 365.576139 365.352035C877.580744 579.447135 828.061934 682.960697 741.800291 752.754273L741.800291 752.754273zM512.004605 146.620335c-11.864212 0-21.441335-9.577123-21.441335-21.457708l0-42.97886c0-11.879562 9.577123-21.457708 21.441335-21.457708 11.879562 0 21.537526 9.577123 21.537526 21.457708l0 42.97886C533.54213 137.043213 523.884167 146.620335 512.004605 146.620335L512.004605 146.620335zM576.520991 490.515686l-128.936581 0c-11.879562 0-21.537526-9.641591-21.537526-21.521153s9.657964-21.457708 21.537526-21.457708l128.936581 0c11.799744 0 21.441335 9.577123 21.441335 21.457708S588.320735 490.515686 576.520991 490.515686L576.520991 490.515686zM512.004605 963.28315c-11.864212 0-21.441335-9.641591-21.441335-21.521153l0-472.767464c0-11.879562 9.577123-21.457708 21.441335-21.457708 11.879562 0 21.537526 9.577123 21.537526 21.457708l0 472.767464C533.54213 953.641559 523.884167 963.28315 512.004605 963.28315L512.004605 963.28315zM748.436432 963.28315l-472.767464 0c-11.879562 0-21.537526-9.641591-21.537526-21.521153s9.657964-21.457708 21.537526-21.457708l472.767464 0c11.799744 0 21.441335 9.577123 21.441335 21.457708S760.236176 963.28315 748.436432 963.28315L748.436432 963.28315z" p-id="26295"></path></svg>