<?xml version="1.0" standalone="no"?><!DOCTYPE svg PUBLIC "-//W3C//DTD SVG 1.1//EN" "http://www.w3.org/Graphics/SVG/1.1/DTD/svg11.dtd"><svg t="1582900591673" class="icon" viewBox="0 0 1024 1024" version="1.1" xmlns="http://www.w3.org/2000/svg" p-id="11431" xmlns:xlink="http://www.w3.org/1999/xlink" width="200" height="200"><defs><style type="text/css"></style></defs><path d="M959.839213 521.54847c0-40.799218-33.000602-73.963549-73.704652-74.360592L886.134561 241.672178c0-58.004065-47.197952-105.211227-105.21839-105.211227L242.156714 136.460951c-58.020438 0-105.21839 47.208185-105.21839 105.211227l0 205.722408C97.278045 448.983781 65.444013 481.509569 65.444013 521.54847c0 40.030715 31.834033 72.538083 71.494311 74.128301l0 184.752818c0 12.540617 10.156314 22.697955 22.687722 22.697955l18.024515 0 0 28.29237c0 28.467355 14.552437 41.491996 26.756387 47.363727 13.290701 6.391571 28.716019 6.90834 44.668339 6.90834l26.115797 0c21.366633 0 71.424726 0 71.424726-54.272068l0-28.29237 329.839217 0 0 28.29237c0 28.467355 14.553461 41.491996 26.764574 47.363727 13.283538 6.391571 28.708855 6.90834 44.668339 6.90834l26.107611 0c21.375843 0 71.433936 0 71.433936-54.272068l0-28.29237 18.016329 0c12.530384 0 22.686698-10.157337 22.686698-22.697955L886.132514 595.918271C926.837588 595.504856 959.839213 562.338479 959.839213 521.54847zM110.82048 521.54847c0-15.027252 11.485589-27.275203 26.116821-28.776394l0 57.545624C122.306068 548.797068 110.82048 536.567535 110.82048 521.54847zM301.248553 831.419913c0 4.112668-0.647753 6.080485-0.630357 6.218632-2.333138 1.796926-10.899234 2.695389-25.427112 2.695389l-26.115797 0c-14.526855 0-23.085788-0.898463-25.167193-2.384303-0.243547-0.448208-0.889253-2.417049-0.889253-6.529717l0-28.29237 78.229712 0L301.248553 831.419913zM800.063253 831.419913c0 4.112668-0.657986 6.080485-0.639566 6.218632-2.331092 1.796926-10.891048 2.695389-25.427112 2.695389l-26.107611 0c-14.535041 0-23.094998-0.898463-25.168216-2.384303-0.240477-0.448208-0.898463-2.417049-0.898463-6.529717l0-28.29237 78.239945 0L800.06223 831.419913zM840.758094 631.189589 720.692554 631.189589c-12.532431 0-22.688745 10.157337-22.688745 22.697955 0 12.539594 10.156314 22.696931 22.688745 22.696931l120.06554 0 0 81.183997L182.305581 757.768473l0-81.183997 120.073726 0c12.532431 0 22.688745-10.157337 22.688745-22.696931 0-12.540617-10.156314-22.697955-22.688745-22.697955L182.305581 631.189589l0-93.446275 658.453537 0L840.759117 631.189589zM840.758094 492.372987 182.305581 492.372987 182.305581 241.672178c0-32.992415 26.850531-59.83476 59.851133-59.83476l538.758434 0c33.001625 0 59.842946 26.842345 59.842946 59.83476L840.758094 492.372987zM886.133537 550.524408l0-57.977459c15.684214 0.414439 28.337395 13.231349 28.337395 29.001521C914.471956 537.327852 901.817752 550.143739 886.133537 550.524408z" p-id="11432"></path></svg>