<?xml version="1.0" standalone="no"?><!DOCTYPE svg PUBLIC "-//W3C//DTD SVG 1.1//EN" "http://www.w3.org/Graphics/SVG/1.1/DTD/svg11.dtd"><svg t="1587136008732" class="icon" viewBox="0 0 1024 1024" version="1.1" xmlns="http://www.w3.org/2000/svg" p-id="2822" xmlns:xlink="http://www.w3.org/1999/xlink" width="200" height="200"><defs><style type="text/css"></style></defs><path d="M514.373818 0C795.368727 0 1024 229.701818 1024 512s-228.631273 512-514.373818 512C228.631273 1024 0 794.298182 0 512S228.631273 0 514.373818 0z m0 55.854545C260.189091 55.854545 55.854545 259.816727 55.854545 512c0 251.531636 203.682909 456.145455 453.771637 456.145455 254.184727 0 458.519273-203.962182 458.519273-456.145455 0-251.531636-203.682909-456.145455-453.771637-456.145455z m20.898909 655.965091v101.189819h-46.545454V711.68c-92.811636-6.516364-143.592727-53.666909-152.389818-140.8h61.719272c4.747636 32.442182 16.616727 55.389091 34.024728 69.632 17.408 12.660364 43.52 18.990545 78.336 18.990545 72.797091 0 109.986909-23.738182 109.986909-69.632 0-22.946909-13.451636-40.354909-38.772364-53.061818-13.451636-6.283636-42.728727-14.987636-87.04-26.065454-48.267636-11.869091-82.292364-23.738182-101.282909-36.398546-31.650909-18.990545-46.685091-45.149091-46.685091-79.918545 0-34.816 15.034182-61.719273 45.893818-82.292364 25.088-18.152727 57.483636-28.253091 96.209455-30.440727V186.181818h46.545454v96.395637c82.013091 7.912727 127.441455 49.524364 137.355637 126.04509h-61.719273c-5.538909-25.320727-15.825455-44.311273-31.650909-55.38909-17.408-12.660364-42.728727-18.990545-75.170909-18.990546-28.485818 0-50.641455 4.747636-66.466909 15.825455-17.408 10.24-26.112 24.529455-26.112 42.728727 0 17.408 11.077818 32.442182 34.816 44.311273 15.034182 7.121455 43.52 15.825455 84.666181 26.903272 49.058909 11.869091 83.874909 24.529455 105.239273 37.981091 32.442182 20.573091 49.058909 48.267636 49.058909 83.874909 0 78.010182-49.989818 120.459636-150.016 125.952z" p-id="2823"></path></svg>