<?xml version="1.0" standalone="no"?><!DOCTYPE svg PUBLIC "-//W3C//DTD SVG 1.1//EN" "http://www.w3.org/Graphics/SVG/1.1/DTD/svg11.dtd"><svg t="1582901743279" class="icon" viewBox="0 0 1025 1024" version="1.1" xmlns="http://www.w3.org/2000/svg" p-id="15591" xmlns:xlink="http://www.w3.org/1999/xlink" width="200.1953125" height="200"><defs><style type="text/css"></style></defs><path d="M897.066667 896H342.4c-12.8 0-25.6-4.266667-34.133333-12.8l-298.666667-341.333333c-12.8-17.066667-12.8-38.4 0-55.466667l298.666667-341.333333c8.533333-12.8 21.333333-17.066667 34.133333-17.066667h554.666667c72.533333 0 128 55.466667 128 128v512c0 72.533333-55.466667 128-128 128zM363.733333 810.666667H897.066667c25.6 0 42.666667-17.066667 42.666666-42.666667V256c0-25.6-17.066667-42.666667-42.666666-42.666667H363.733333l-260.266666 298.666667 260.266666 298.666667z" p-id="15592"></path><path d="M513.066667 682.666667c-12.8 0-21.333333-4.266667-29.866667-12.8-17.066667-17.066667-17.066667-42.666667 0-59.733334l256-256c17.066667-17.066667 42.666667-17.066667 59.733333 0s17.066667 42.666667 0 59.733334l-256 256c-8.533333 8.533333-17.066667 12.8-29.866666 12.8z" p-id="15593"></path><path d="M769.066667 682.666667c-12.8 0-21.333333-4.266667-29.866667-12.8l-256-256c-17.066667-17.066667-17.066667-42.666667 0-59.733334s42.666667-17.066667 59.733333 0l256 256c17.066667 17.066667 17.066667 42.666667 0 59.733334-8.533333 8.533333-17.066667 12.8-29.866666 12.8z" p-id="15594"></path></svg>