<?xml version="1.0" standalone="no"?><!DOCTYPE svg PUBLIC "-//W3C//DTD SVG 1.1//EN" "http://www.w3.org/Graphics/SVG/1.1/DTD/svg11.dtd"><svg t="1585125894579" class="icon" viewBox="0 0 1024 1024" version="1.1" xmlns="http://www.w3.org/2000/svg" p-id="5798" xmlns:xlink="http://www.w3.org/1999/xlink" width="200" height="200"><defs><style type="text/css"></style></defs><path d="M702.582081 982.028073c-147.552567 0-267.167852-119.615285-267.167852-267.167852S555.030537 447.692369 702.582081 447.692369s267.167852 119.615285 267.167852 267.167852S850.134649 982.028073 702.582081 982.028073zM702.582081 514.488681c-110.663402 0-200.375633 89.708138-200.375633 200.373587 0 110.661356 89.712231 200.375633 200.375633 200.375633 110.665449 0 200.375633-89.715301 200.375633-200.375633C902.957715 604.196819 813.24753 514.488681 702.582081 514.488681zM791.638373 781.65244 653.572878 781.65244l25.886577 43.655266c2.556219 4.312212-3.558036 12.407588-13.654998 18.082844-10.094916 5.677303-20.35356 6.783497-22.909779 2.471284 0 0-51.631938-78.031191-51.631938-86.473467 0-0.787946 0.367367-1.454118 0.447185-2.219551 0.055259-0.641613 0.138146-1.26276 0.398066-1.967818 2.018983-10.216689 10.606569-18.075681 21.417799-18.075681l5.554506 0c1.747807-0.24457 3.215228-0.180102 4.597715 0l167.95934 0c12.296047 0 22.264073 9.968026 22.264073 22.264073C813.902446 771.684414 803.93442 781.65244 791.638373 781.65244zM813.056172 674.520467c-2.018983 10.216689-10.606569 18.075681-21.417799 18.075681l-5.554506 0c-1.747807 0.24457-3.215228 0.180102-4.597715 0L613.526813 692.596148c-12.296047 0-22.264073-9.968026-22.264073-22.264073s9.968026-22.264073 22.264073-22.264073l138.065496 0-25.886577-43.655266c-2.556219-4.312212 3.558036-12.407588 13.654998-18.082844 10.094916-5.677303 20.35356-6.783497 22.909779-2.471284 0 0 51.631938 78.031191 51.631938 86.473467 0 0.787946-0.367367 1.454118-0.447185 2.219551C813.398979 673.193239 813.317115 673.814386 813.056172 674.520467zM680.318008 269.580808c12.296047 0 22.264073 9.968026 22.264073 22.264073 0 12.296047-9.968026 22.264073-22.264073 22.264073L568.998667 314.108954c-12.296047 0-22.264073-9.968026-22.264073-22.264073 0-12.296047 9.968026-22.264073 22.264073-22.264073L680.318008 269.580808zM235.038596 670.332075 346.358961 670.332075c12.296047 0 22.264073 9.968026 22.264073 22.264073s-9.968026 22.264073-22.264073 22.264073L235.038596 714.860221c-12.296047 0-22.264073-9.968026-22.264073-22.264073S222.742549 670.332075 235.038596 670.332075zM457.678302 425.428296c12.296047 0 22.264073 9.968026 22.264073 22.264073 0 12.296047-9.968026 22.264073-22.264073 22.264073l-89.056292 0 0 89.056292c0 12.296047-9.968026 22.264073-22.264073 22.264073s-22.264073-9.968026-22.264073-22.264073l0-89.056292-89.056292 0c-12.296047 0-22.264073-9.968026-22.264073-22.264073 0-12.296047 9.968026-22.264073 22.264073-22.264073l89.056292 0 0-89.056292-89.056292 0c-12.296047 0-22.264073-9.968026-22.264073-22.264073s9.968026-22.264073 22.264073-22.264073l22.264073 0 0-44.528146c0-12.296047 9.968026-22.264073 22.264073-22.264073 12.296047 0 22.264073 9.968026 22.264073 22.264073l0 44.528146 89.056292 0 0-44.528146c0-12.296047 9.968026-22.264073 22.264073-22.264073s22.264073 9.968026 22.264073 22.264073l0 44.528146 22.264073 0c12.296047 0 22.264073 9.968026 22.264073 22.264073s-9.968026 22.264073-22.264073 22.264073l-89.056292 0 0 89.056292L457.678302 425.428296zM791.638373 158.261467c0-24.593118-19.935028-44.528146-44.528146-44.528146l-578.86385 0c-24.593118 0-44.528146 19.935028-44.528146 44.528146l0 645.655046c0 24.593118 19.935028 44.528146 44.528146 44.528146l253.039064 0c11.466146 24.095791 25.708522 46.587038 42.693358 66.792219L145.983327 915.236877c-49.183166 0-89.056292-39.872103-89.056292-89.056292L56.927035 135.997394c0-49.183166 39.872103-89.056292 89.056292-89.056292l623.390973 0c49.183166 0 89.056292 39.872103 89.056292 89.056292l0 309.206294c-20.883633-12.098549-43.202964-21.934568-66.792219-28.958542L791.638373 158.261467z" p-id="5799"></path></svg>