<?xml version="1.0" standalone="no"?><!DOCTYPE svg PUBLIC "-//W3C//DTD SVG 1.1//EN" "http://www.w3.org/Graphics/SVG/1.1/DTD/svg11.dtd"><svg t="1585302123436" class="icon" viewBox="0 0 1040 1024" version="1.1" xmlns="http://www.w3.org/2000/svg" p-id="622" xmlns:xlink="http://www.w3.org/1999/xlink" width="203.125" height="200"><defs><style type="text/css"></style></defs><path d="M323.461 504.915L614.725 796.178a25.658 25.658 0 0 0 18.21 7.547c14.226 0 25.763-11.53 25.763-25.756a25.675 25.675 0 0 0-7.547-18.214l-275.986-275.99L642.29 216.59a24.349 24.349 0 0 0 6.867-17.01c0-13.51299999-10.95700001-24.476-24.47599999-24.476a24.405 24.405 0 0 0-17.014 6.88l-276.96000001 276.96a24.08 24.08 0 0 0-6.557 12.726c0.53400001-3.422-0.2-3.863-0.69-3.13300001a25.66 25.66 0 0 0-7.523 18.19000001c0 7.09700001 2.873 13.53 7.523 18.18999999l0-0.00299999z m0 0" p-id="623"></path></svg>