<?xml version="1.0" standalone="no"?><!DOCTYPE svg PUBLIC "-//W3C//DTD SVG 1.1//EN" "http://www.w3.org/Graphics/SVG/1.1/DTD/svg11.dtd"><svg t="1585126923559" class="icon" viewBox="0 0 1160 1024" version="1.1" xmlns="http://www.w3.org/2000/svg" p-id="9146" xmlns:xlink="http://www.w3.org/1999/xlink" width="226.5625" height="200"><defs><style type="text/css"></style></defs><path d="M768.908 454.4h-128v-128c0 0 0 0 0 0 0-23.564-19.098-42.668-42.661-42.677h-28.447c0 0 0 0 0 0-23.561 0-42.662 19.1-42.662 42.662 0 0.005 0 0.011 0 0.016v127.999h-128c0 0 0 0 0 0-23.561 0-42.662 19.1-42.662 42.662 0 0 0 0 0 0v28.431c0 0 0 0 0 0 0 23.564 19.098 42.668 42.661 42.677h128.001v128c0.009 23.558 19.104 42.653 42.661 42.662h28.447c23.558-0.009 42.653-19.104 42.662-42.661v-128.001h128c23.566-0.009 42.668-19.11 42.677-42.676v-28.432c-0.009-23.563-19.112-42.662-42.677-42.662 0 0 0 0 0 0zM598.246 0h-28.446c-274.914 0-497.769 222.886-497.769 497.784v28.446c0 274.884 222.856 497.769 497.784 497.769h28.446c274.914 0 497.769-222.856 497.769-497.784v-28.446c0-274.884-222.856-497.769-497.784-497.769zM584.031 965.617c-250.534 0-453.617-203.083-453.617-453.617s203.083-453.617 453.617-453.617 453.617 203.083 453.617 453.617-203.083 453.617-453.617 453.617z" p-id="9147"></path></svg>