<?xml version="1.0" standalone="no"?><!DOCTYPE svg PUBLIC "-//W3C//DTD SVG 1.1//EN" "http://www.w3.org/Graphics/SVG/1.1/DTD/svg11.dtd"><svg t="1582943608999" class="icon" viewBox="0 0 1024 1024" version="1.1" xmlns="http://www.w3.org/2000/svg" p-id="4341" xmlns:xlink="http://www.w3.org/1999/xlink" width="200" height="200"><defs><style type="text/css"></style></defs><path d="M427.202 580.946l26.176 26.853 425.741-436.74-26.178-26.853-425.739 436.739zM840.437 741.875c0 55.080-43.564 98.645-98.645 98.645h-460.34c-55.079 0-98.644-43.564-98.644-98.645v-462.275c0-53.146 43.564-96.709 96.71-96.709h444.866v-38.686h-444.866c-74.511 0-135.396 60.885-135.396 135.396v462.275c0 76.445 60.884 137.327 137.329 137.327h460.34c76.446 0 137.327-60.881 137.327-137.327v-346.222h-38.681v346.222zM840.437 741.875z" fill="#2c2c2c" p-id="4342"></path></svg>