<?xml version="1.0" standalone="no"?><!DOCTYPE svg PUBLIC "-//W3C//DTD SVG 1.1//EN" "http://www.w3.org/Graphics/SVG/1.1/DTD/svg11.dtd"><svg t="1585295045145" class="icon" viewBox="0 0 1040 1024" version="1.1" xmlns="http://www.w3.org/2000/svg" p-id="2252" xmlns:xlink="http://www.w3.org/1999/xlink" width="203.125" height="200"><defs><style type="text/css"></style></defs><path d="M700.539 519.085L409.275 227.822a25.658 25.658 0 0 0-18.21-7.547c-14.226 0-25.763 11.53-25.763 25.756a25.675 25.675 0 0 0 7.547 18.214l275.986 275.99L381.71 807.41a24.349 24.349 0 0 0-6.867 17.01c0 13.513 10.957 24.476 24.476 24.476a24.405 24.405 0 0 0 17.014-6.88l276.96-276.96a24.08 24.08 0 0 0 6.557-12.726c-0.534 3.422 0.2 3.863 0.69 3.133a25.66 25.66 0 0 0 7.523-18.19c0-7.097-2.873-13.53-7.523-18.19v0.003z m0 0" fill="#666666" p-id="2253"></path></svg>