<?xml version="1.0" standalone="no"?><!DOCTYPE svg PUBLIC "-//W3C//DTD SVG 1.1//EN" "http://www.w3.org/Graphics/SVG/1.1/DTD/svg11.dtd"><svg t="1585127044655" class="icon" viewBox="0 0 1024 1024" version="1.1" xmlns="http://www.w3.org/2000/svg" p-id="12415" xmlns:xlink="http://www.w3.org/1999/xlink" width="200" height="200"><defs><style type="text/css"></style></defs><path d="M334.26 758.33c0 14.588-11.563 26.521-25.697 26.521h-38.544c-14.132 0-25.695-11.934-25.695-26.521V605.885c0-14.591 13.155-26.938 22.048-32.729 8.896-5.792 37.599-17.801 52.558-21.074 14.956-3.275 15.33 25.986 15.33 40.572V758.33z m130.903 4.671c0 14.595-11.563 26.528-25.699 26.528h-38.542c-14.134 0-25.698-11.934-25.698-26.528V533.803c0-14.588 20.071-25.457 20.071-25.457s23.493-13.575 37.627-13.575 31.956 15.676 32.241 29.399v238.831z m130.198 0c0 14.595-11.563 26.528-25.695 26.528H531.12c-14.131 0-25.696-11.934-25.696-26.528V535.66c0-22.407 37.114-42.369 37.114-42.369s31.723-19.647 41.096-19.337c9.365 0.31 11.728 10.164 11.728 24.754v264.293z m130.539 0c0 14.595-11.566 26.528-25.699 26.528h-38.542c-14.136 0-25.699-11.934-25.699-26.528v-309.41c0-14.587 22.267-25.525 22.267-25.525s18.321-12.512 34.641-14.697c16.771 1.016 33.033 28.151 33.033 34.698v314.934z m69.834-505.967l-124.175 13.01c-12.136 1.272-17.011 10.923-10.832 21.447l13.909 23.68c-56.429 32.615-151.566 86.673-162.354 86.761-15.451 0.129-49.38-20.071-49.38-20.071a25.144 25.144 0 0 0-2.756-1.084c-7.106-3.823-15.835-4.205-23.495-0.213L210.548 498.918c-12.614 6.58-17.723 22.615-11.353 35.635 6.372 13.018 21.907 18.294 34.523 11.719l215.255-112.704 48.54 22.597c0.672 0.308 1.347 0.583 2.021 0.829 7.595 4.861 17.449 5.54 25.832 0.855l175.504-98.001 12.399 21.113c6.185 10.524 16.632 10.73 23.226 0.459l69.322-108.02c6.594-10.272 2.054-17.637-10.083-16.366z" p-id="12416"></path><path d="M3.583 512.003c0 280.335 228.072 508.419 508.417 508.419 280.347 0 508.417-228.084 508.417-508.419 0-280.358-228.07-508.424-508.417-508.424-280.345 0-508.417 228.066-508.417 508.424z m64.883 0c0-257.921 185.62-443.54 443.534-443.54 257.915 0 443.534 185.619 443.534 443.54 0 257.91-185.619 443.529-443.534 443.529-257.914-0.001-443.534-185.62-443.534-443.529z" p-id="12417"></path></svg>