<?xml version="1.0" standalone="no"?><!DOCTYPE svg PUBLIC "-//W3C//DTD SVG 1.1//EN" "http://www.w3.org/Graphics/SVG/1.1/DTD/svg11.dtd"><svg t="1582973833125" class="icon" viewBox="0 0 1024 1024" version="1.1" xmlns="http://www.w3.org/2000/svg" p-id="19471" xmlns:xlink="http://www.w3.org/1999/xlink" width="200" height="200"><defs><style type="text/css"></style></defs><path d="M217.216 118.31296L48.66048 174.14144c-10.89536 3.6096-18.79552 12.8512-18.79552 24.68352V465.92c0 17.92 16.24576 27.40224 32.40448 24.68352l197.97504-33.28L227.84 432.64v383.93856c0 50.44736-12.91264 137.00608 59.91424 142.87872 47.72352 3.85024 96.86528 0.53248 144.69632 0.53248h241.92c52.05504 0 129.47456 13.73696 145.94048-53.10976 3.74784-15.22688 1.44896-33.59744 1.44896-49.01888v-97.77152-242.59072-84.86912c-10.79808 8.22784-21.61152 16.45568-32.40448 24.68352l186.02496 29.01504c16.15872 2.51904 32.40448-6.61504 32.40448-24.68352V181.74976c0-11.69408-7.86944-21.25824-18.79552-24.68352l-228.68992-71.68c-31.59552-9.90208-45.0048 39.53152-13.60896 49.37216l228.68992 71.68c-6.272-8.22784-12.52864-16.45568-18.79552-24.68352v279.89504c10.79296-8.22784 21.6064-16.45568 32.40448-24.68352l-186.02496-29.01504c-16.15872-2.51904-32.40448 6.61504-32.40448 24.68352v453.59104c0 16.02048-8.69888 22.56896-24.0384 22.56896H332.91776c-12.34432 0-32.45568 3.968-44.416-1.0752-14.5152-6.13888-9.45664-34.84672-9.45664-47.01696V444.6208v-11.99616c0-17.92-16.24576-27.40224-32.40448-24.68352l-197.97504 33.28 32.40448 24.68352V198.8096l-18.79552 24.68352 168.55552-55.82848c31.1808-10.31168 17.8176-59.76576-13.61408-49.35168z" p-id="19472"></path><path d="M256.85504 813.22496H693.76c33.01376 0 33.01376-51.2 0-51.2H256.85504c-33.01888 0-33.01888 51.2 0 51.2zM723.072 103.29088c-26.2912 75.6224-89.22112 129.60256-166.90176 146.9952-84.70016 18.96448-170.51648-18.99008-223.08864-85.32992-20.50048-25.87136-56.47872 10.624-36.20352 36.20352 65.44384 82.57536 170.20928 118.35904 272.90112 98.49344 95.36-18.44736 171.36128-92.7232 202.65472-182.7584 10.86464-31.26272-38.59968-44.58496-49.36192-13.60384z" p-id="19473"></path></svg>