<?xml version="1.0" standalone="no"?><!DOCTYPE svg PUBLIC "-//W3C//DTD SVG 1.1//EN" "http://www.w3.org/Graphics/SVG/1.1/DTD/svg11.dtd"><svg t="1582974632769" class="icon" viewBox="0 0 1024 1024" version="1.1" xmlns="http://www.w3.org/2000/svg" p-id="23473" xmlns:xlink="http://www.w3.org/1999/xlink" width="200" height="200"><defs><style type="text/css"></style></defs><path d="M673.230078 436.0584l-2.056845-134.930085-1.979074-5.054109C649.742131 246.236124 539.491121 57.304124 442.24838 75.41255c-74.947969 13.83203-83.620489 127.856993-83.620489 212.416877l-2.056845 148.228973c-34.750455 17.632589-56.545854 55.701626-56.545854 96.93268L300.025191 861.258499c0 58.624189 48.197722 95.022167 107.435894 95.022167l214.872812 0c59.244312 0 107.436918-36.397978 107.436918-95.022167L729.770815 532.990057C729.775932 491.759003 707.97644 453.695083 673.230078 436.0584L673.230078 436.0584zM390.498762 458.676537l248.803599 0c23.585161 0 52.012607 45.826721 56.545854 67.855434L333.952908 526.531971C344.139921 477.091956 390.498762 458.676537 390.498762 458.676537zM447.044616 108.09081c37.163411-6.881734 160.205749 126.566604 192.257745 203.566302l0 113.090685L390.498762 424.747797 390.498762 277.729395C390.498762 160.263054 433.754938 110.535489 447.044616 108.09081L447.044616 108.09081zM639.302361 922.353972 390.498762 922.353972c-26.926256 0-56.545854-41.201377-56.545854-67.856457L333.952908 560.459688l361.895307 0 0 282.730293C695.848215 843.189981 683.907255 922.353972 639.302361 922.353972z" p-id="23474"></path></svg>