<?xml version="1.0" standalone="no"?><!DOCTYPE svg PUBLIC "-//W3C//DTD SVG 1.1//EN" "http://www.w3.org/Graphics/SVG/1.1/DTD/svg11.dtd"><svg t="1582973971489" class="icon" viewBox="0 0 1024 1024" version="1.1" xmlns="http://www.w3.org/2000/svg" p-id="21192" xmlns:xlink="http://www.w3.org/1999/xlink" width="200" height="200"><defs><style type="text/css"></style></defs><path d="M792.315802 63.815421 228.773915 63.815421c-39.785122 0-72.158437 32.373315-72.158437 72.160483l0 749.098c0 39.787168 32.373315 72.160483 72.158437 72.160483l563.541887 0c39.787168 0 72.160483-32.373315 72.160483-72.160483L864.476285 135.975904C864.475262 96.188736 832.101947 63.815421 792.315802 63.815421L792.315802 63.815421zM228.773915 118.79357l563.541887 0c9.475815 0 17.182334 7.711636 17.182334 17.182334l0 120.267131L211.595674 256.243035 211.595674 135.975904C211.595674 126.505205 219.30424 118.79357 228.773915 118.79357L228.773915 118.79357zM792.315802 902.256238 228.773915 902.256238c-9.469676 0-17.178241-7.711636-17.178241-17.182334L211.595674 311.226301l597.901439 0 0 573.847603C809.498136 894.544603 801.790594 902.256238 792.315802 902.256238L792.315802 902.256238zM510.54537 352.460424c-143.998625 0-261.152858 117.149117-261.152858 261.152858 0 143.998625 117.154233 261.152858 261.152858 261.152858 144.003741 0 261.152858-117.154233 261.152858-261.152858C771.698229 469.609541 654.549112 352.460424 510.54537 352.460424L510.54537 352.460424zM510.54537 819.784922c-113.684202 0-206.170616-92.489484-206.170616-206.17164 0-113.687272 92.486414-206.17471 206.170616-206.17471 113.683179 0 206.17471 92.487438 206.17471 206.17471C716.72008 727.295438 624.228549 819.784922 510.54537 819.784922L510.54537 819.784922zM510.54537 449.690886c-90.385567 0-163.919327 73.53683-163.919327 163.921373s73.53376 163.921373 163.919327 163.921373c90.388637 0 163.921373-73.53683 163.921373-163.921373S600.934007 449.690886 510.54537 449.690886L510.54537 449.690886zM510.54537 722.553437c-60.07012 0-108.940155-48.872081-108.940155-108.940155 0-60.074214 48.870034-108.940155 108.940155-108.940155 60.068074 0 108.944248 48.865941 108.944248 108.940155C619.489618 673.681356 570.613444 722.553437 510.54537 722.553437L510.54537 722.553437zM575.836399 242.501056c26.523073 0 48.103578-21.580504 48.103578-48.108694 0-26.527167-21.580504-48.107671-48.103578-48.107671-26.52819 0-48.108694 21.580504-48.108694 48.107671C527.727705 220.920552 549.308209 242.501056 575.836399 242.501056L575.836399 242.501056zM575.836399 187.519838c3.787256 0 6.868431 3.084245 6.868431 6.872524 0 3.789303-3.081175 6.874571-6.868431 6.874571-3.78828 0-6.874571-3.085268-6.874571-6.874571C568.961828 190.604082 572.043003 187.519838 575.836399 187.519838L575.836399 187.519838zM723.590558 242.501056c26.527167 0 48.107671-21.580504 48.107671-48.108694 0-26.527167-21.580504-48.107671-48.107671-48.107671-26.524097 0-48.104601 21.580504-48.104601 48.107671C675.48698 220.920552 697.066461 242.501056 723.590558 242.501056L723.590558 242.501056zM723.590558 187.519838c3.787256 0 6.873548 3.084245 6.873548 6.872524 0 3.789303-3.086291 6.874571-6.873548 6.874571-3.789303 0-6.870478-3.085268-6.870478-6.874571C716.72008 190.604082 719.801255 187.519838 723.590558 187.519838L723.590558 187.519838zM723.590558 187.519838" p-id="21193"></path></svg>