<?xml version="1.0" standalone="no"?><!DOCTYPE svg PUBLIC "-//W3C//DTD SVG 1.1//EN" "http://www.w3.org/Graphics/SVG/1.1/DTD/svg11.dtd"><svg t="1582974132569" class="icon" viewBox="0 0 1024 1024" version="1.1" xmlns="http://www.w3.org/2000/svg" p-id="22299" xmlns:xlink="http://www.w3.org/1999/xlink" width="200" height="200"><defs><style type="text/css"></style></defs><path d="M985.091852 600.061c-25.965584 30.207849-58.075138 48.274044-96.255519 54.344871v231.130273c0 22.8936-7.314249 43.15407-21.72332 60.708268-14.555356 17.554198-32.914121 28.525572-55.003154 33.133548v20.626183a23.039885 23.039885 0 0 1-7.460534 16.530203 23.698167 23.698167 0 0 1-17.188485 7.460534 21.796462 21.796462 0 0 1-16.603346-7.460534 23.917595 23.917595 0 0 1-6.875394-16.530203v-19.455903h-503.951766v19.455903a23.917595 23.917595 0 0 1-6.875394 16.530203 22.454745 22.454745 0 0 1-17.188486 7.460534 22.454745 22.454745 0 0 1-17.188485-7.460534 23.917595 23.917595 0 0 1-6.875394-16.530203v-20.626183a94.134386 94.134386 0 0 1-55.003154-33.206691 92.378967 92.378967 0 0 1-21.72332-60.635125v-231.130273a156.012934 156.012934 0 0 1-96.255518-54.344871A156.963787 156.963787 0 0 1 0.008777 494.296957c0-40.447798 13.385076-75.921906 40.082085-106.422325 26.697009-30.500419 59.976843-48.420329 99.693216-53.759731a373.758131 373.758131 0 0 1 117.905696-232.300553C330.247126 33.938116 415.823841 0 514.273634 0c95.450951 0 178.906534 32.036411 250.293606 96.109234a370.832432 370.832432 0 0 1 124.342235 239.175947c38.107238 6.070827 70.216792 24.137022 96.182377 54.271728 25.892442 30.134706 38.911805 65.096817 38.911805 104.740048 0 40.374655-13.019363 75.702479-38.911805 105.764043z m-41.252365-24.575877a109.713737 109.713737 0 0 0 33.206691-80.676168c0-31.597556-11.117659-58.513993-33.206691-80.603026a108.03146 108.03146 0 0 0-78.993891-33.206691c-31.378129 0-57.928853 11.044516-79.725316 33.206691a114.248572 114.248572 0 0 0-33.718688 80.091028l2.267417 20.55304v274.576913a23.332455 23.332455 0 0 1-24.06388 23.990737h-435.197824a23.332455 23.332455 0 0 1-24.137022-23.990737V514.92314l2.34056-20.55304a114.321714 114.321714 0 0 0-33.791831-80.091029 107.519462 107.519462 0 0 0-79.579031-33.206691c-30.573561 0-56.904858 11.044516-78.993891 33.206691a109.713737 109.713737 0 0 0-33.279833 80.603026c0 31.670699 11.044516 58.513993 33.206691 80.676168 22.162175 22.162175 48.493472 33.206691 78.99389 33.206691a23.332455 23.332455 0 0 1 24.137023 23.990737l-1.17028 42.422645v210.430948c0 12.946221 4.607977 24.06388 13.750788 33.206691a46.66491 46.66491 0 0 0 34.376971 13.750789h563.489754a46.66491 46.66491 0 0 0 34.376971-13.750789 45.20206 45.20206 0 0 0 13.750789-33.206691V675.105196l-1.17028-42.349503a23.332455 23.332455 0 0 1 24.063879-23.990737c30.573561 0 56.904858-11.044516 78.993891-33.206691zM187.838695 336.309176c37.448956 6.143969 68.753942 24.283307 93.914959 54.418013 25.23416 30.134706 37.814668 64.657962 37.814668 103.569768v2.194275l-1.17028 20.626182v141.896434h387.21635V517.117414L704.37097 496.637517v-2.267417c0-39.716373 12.946221-74.605341 38.911805-104.740048 25.965584-30.134706 58.440851-48.274044 97.352656-54.344871-10.678804-81.553878-47.103764-150.01525-109.348025-205.384116C669.116289 74.605341 596.778365 46.884337 514.200492 46.884337c-82.431588 0-154.769512 27.647862-217.013772 82.943585A323.50924 323.50924 0 0 0 187.838695 336.455461z m130.559347 430.224134h387.21635v-59.464845H318.398042v59.464845z" p-id="22300"></path></svg>