<?xml version="1.0" standalone="no"?><!DOCTYPE svg PUBLIC "-//W3C//DTD SVG 1.1//EN" "http://www.w3.org/Graphics/SVG/1.1/DTD/svg11.dtd"><svg t="1582973994209" class="icon" viewBox="0 0 1024 1024" version="1.1" xmlns="http://www.w3.org/2000/svg" p-id="21460" xmlns:xlink="http://www.w3.org/1999/xlink" width="200" height="200"><defs><style type="text/css"></style></defs><path d="M255.194124 367.873522c16.803158 50.875091 33.857033 98.710878 47.963704 147.406266 4.610123 15.90774 5.495308 35.090151 1.279169 50.967191-14.531355 54.727947-32.066197 108.657692-49.360556 165.872343 17.145975 0 31.508479-0.399101 45.840284 0.10745 14.904872 0.527017 27.722141 5.280408 27.302573 23.193884-0.409334 17.345525-11.671134 22.671983-27.686324 22.267766-21.300715-0.532134-42.621896-0.020467-63.93796-0.1535-30.173028-0.189317-38.67694-10.683616-30.178144-39.413741 17.079458-57.721201 35.832069-114.961435 51.857493-172.958937 3.929606-14.224354 3.387238-31.63128-0.890301-45.83005-15.390956-51.095108-33.222565-101.458532-50.19969-152.077789-11.133883-33.191865-3.504922-44.330865 30.909829-44.428082 42.458162-0.117684 84.921441-0.0307 126.054385-0.0307 2.210403-3.622605 3.980772-5.172958 3.765872-6.354909-8.135512-44.289932 18.793544-64.715695 53.684145-80.736002 124.227732-57.050917 248.163814-55.060531 372.181762 0.496317 26.796023 12.003718 38.47739 30.198611 38.155039 61.563824-1.575936 154.293309-0.690751 308.607085-0.731684 462.915745-0.010233 39.372808-2.670904 45.998901-40.87711 55.868965-36.819587 9.511897-74.780193 16.997592-112.638465 19.601979-91.864768 6.324209-183.632319 6.452126-273.1076-21.648648-25.358237-7.961545-36.880987-20.963014-36.40002-49.585689 1.683386-99.718863 0.194434-199.483776 1.330335-299.217988 0.1228-10.560815 6.943327-25.537321 15.365373-30.541428 15.590506-9.266297 29.32366 4.681757 29.36971 28.249158 0.19955 93.778404 0.895418 187.567041-0.527017 281.324979-0.32235 21.418398 6.334443 29.779044 26.519722 33.857033 106.457523 21.515615 212.746195 21.479798 319.295818 0.941468 20.420647-3.934722 28.740359-12.187918 28.530575-35.243652-1.309869-144.919562-1.258702-289.859591 0.005117-434.774037 0.1842-20.896497-7.260561-31.447079-24.575386-38.349473-111.389997-44.402498-221.500824-45.328616-330.265967 9.128147-13.84572 6.933093-21.142098 15.70819-19.080078 31.748963 1.074502 8.386229-0.051167 17.033408 0.225134 25.547554 0.711218 21.536082-9.552831 30.766562-31.032629 30.459561C341.650567 367.448838 299.949673 367.873522 255.194124 367.873522z" p-id="21461"></path><path d="M598.062459 281.084495c17.053875-0.0307 34.552901-2.333203 50.977425 0.874951 9.15373 1.785719 16.521741 12.740519 24.698186 19.561045-7.506161 7.603378-14.602988 21.229081-22.595233 21.771449-35.642752 2.43042-71.628322 2.47647-107.265957 0.097217-7.741528-0.516784-14.572288-14.582521-21.827732-22.411033 7.434528-6.620976 14.132254-17.555309 22.451966-18.967511C561.902923 279.053175 580.159217 281.115195 598.062459 281.084495z" p-id="21462"></path></svg>