<?xml version="1.0" standalone="no"?><!DOCTYPE svg PUBLIC "-//W3C//DTD SVG 1.1//EN" "http://www.w3.org/Graphics/SVG/1.1/DTD/svg11.dtd"><svg t="1582900575977" class="icon" viewBox="0 0 1024 1024" version="1.1" xmlns="http://www.w3.org/2000/svg" p-id="10597" xmlns:xlink="http://www.w3.org/1999/xlink" width="200" height="200"><defs><style type="text/css"></style></defs><path d="M834.56 973.824H189.44c-20.224 0-39.424-8.704-52.736-24.064-13.312-15.36-19.2-35.584-16.384-55.808l76.8-539.392c4.864-34.304 34.56-60.16 69.376-60.16H757.76c34.56 0 64.256 25.856 69.376 60.16l76.8 539.392c2.816 19.968-3.072 40.448-16.384 55.808-13.568 15.36-32.768 24.064-52.992 24.064zM266.24 350.976c-6.656 0-12.544 5.12-13.568 11.776l-76.8 539.392c-0.768 5.376 1.792 9.216 3.072 10.752s4.864 4.608 10.24 4.608h645.12c5.376 0 8.704-2.816 10.24-4.608s3.84-5.376 3.072-10.752l-76.8-539.392c-1.024-6.656-6.656-11.776-13.568-11.776H266.24z" p-id="10598"></path><path d="M353.792 430.08m-38.4 0a38.4 38.4 0 1 0 76.8 0 38.4 38.4 0 1 0-76.8 0Z" p-id="10599"></path><path d="M670.208 430.08m-38.4 0a38.4 38.4 0 1 0 76.8 0 38.4 38.4 0 1 0-76.8 0Z" p-id="10600"></path><path d="M693.248 416.256h-46.08V236.544c0-74.496-60.672-135.168-135.168-135.168-35.84 0-69.888 14.08-95.488 39.68-36.608 36.608-39.68 82.432-39.68 95.488v179.968h-46.08V236.544c0-22.528 5.376-80.128 53.248-128 34.304-34.304 79.872-53.248 128-53.248 99.84 0 181.248 81.408 181.248 181.248v179.712z" p-id="10601"></path></svg>