<?xml version="1.0" standalone="no"?><!DOCTYPE svg PUBLIC "-//W3C//DTD SVG 1.1//EN" "http://www.w3.org/Graphics/SVG/1.1/DTD/svg11.dtd"><svg t="1582898458147" class="icon" viewBox="0 0 1024 1024" version="1.1" xmlns="http://www.w3.org/2000/svg" p-id="9697" xmlns:xlink="http://www.w3.org/1999/xlink" width="200" height="200"><defs><style type="text/css"></style></defs><path d="M275.0464 389.12a20.48 20.48 0 0 1 20.48 21.504l-26.624 471.04a21.7088 21.7088 0 0 1-43.6224-2.2528l26.624-471.04a20.48 20.48 0 0 1 23.1424-19.2512z" p-id="9698"></path><path d="M307.2 61.44c-90.5216 0-163.84 81.92-163.84 184.32 0 94.0032 62.464 171.4176 143.36 182.6816V389.12a19.0464 19.0464 0 0 1 0-2.048c-58.368-11.264-102.4-70.0416-102.4-141.312 0-79.2576 55.0912-143.36 122.88-143.36s122.88 64.1024 122.88 143.36c0 71.2704-44.4416 130.048-102.4 141.312a19.0464 19.0464 0 0 1 0 2.048v39.3216c80.896-11.264 143.36-88.6784 143.36-182.6816 0-102.4-73.3184-184.32-163.84-184.32z" p-id="9699"></path><path d="M345.9072 389.12a20.48 20.48 0 0 0-18.2272 20.48l23.552 471.04a20.48 20.48 0 0 0 20.48 19.456 20.48 20.48 0 0 0 17.408-20.6848l-23.552-471.04a20.48 20.48 0 0 0-19.6608-19.2512z" p-id="9700"></path><path d="M344.4736 808.1408A20.48 20.48 0 0 1 348.16 819.2v40.96a20.48 20.48 0 0 1-2.048 8.6016 40.96 40.96 0 0 1 2.048 11.8784 40.96 40.96 0 0 1-81.92 0 40.96 40.96 0 0 1 2.048-11.8784A20.48 20.48 0 0 1 266.24 860.16v-40.96a20.48 20.48 0 0 1 3.6864-11.0592 81.92 81.92 0 1 0 74.3424 0zM705.1264 389.12a20.48 20.48 0 0 1 20.48 21.504l-26.624 471.04a21.7088 21.7088 0 0 1-43.6224-2.2528l26.624-471.04a20.48 20.48 0 0 1 23.1424-19.2512zM775.9872 389.12a20.48 20.48 0 0 0-18.2272 20.48l23.552 471.04a20.48 20.48 0 0 0 20.48 19.456 20.48 20.48 0 0 0 17.408-20.6848l-23.552-471.04a20.48 20.48 0 0 0-19.6608-19.2512z" p-id="9701"></path><path d="M774.5536 808.1408A20.48 20.48 0 0 1 778.24 819.2v40.96a20.48 20.48 0 0 1-2.048 8.6016 40.96 40.96 0 0 1 2.048 11.8784 40.96 40.96 0 1 1-81.92 0 40.96 40.96 0 0 1 2.048-11.8784A20.48 20.48 0 0 1 696.32 860.16v-40.96a20.48 20.48 0 0 1 3.6864-11.0592 81.92 81.92 0 1 0 74.3424 0zM622.7968 102.4a20.48 20.48 0 0 1 20.48 20.48L634.88 327.68a20.48 20.48 0 0 1-40.96 0l7.168-204.8a20.48 20.48 0 0 1 21.7088-20.48zM696.32 102.4a20.48 20.48 0 0 1 20.48 20.48v204.8a20.48 20.48 0 1 1-40.96 0V122.88a20.48 20.48 0 0 1 20.48-20.48zM856.4736 102.4A20.48 20.48 0 0 0 839.68 122.88l6.144 204.8a18.8416 18.8416 0 0 0 18.0224 20.48 20.48 20.48 0 0 0 16.7936-20.48l-6.144-204.8a18.8416 18.8416 0 0 0-18.0224-20.48zM757.76 327.68a20.48 20.48 0 1 0 40.96 0V184.32h-40.96zM798.72 122.88a20.48 20.48 0 0 0-40.96 0v20.48h40.96z" p-id="9702"></path><path d="M716.8 389.12a19.2512 19.2512 0 0 1 0-2.048 126.976 126.976 0 0 1-90.5216-79.872H593.92v27.2384a163.84 163.84 0 0 0 122.88 94.0032zM848.0768 307.2A126.976 126.976 0 0 1 757.76 387.072a19.2512 19.2512 0 0 1 0 2.048v39.3216a163.84 163.84 0 0 0 122.88-94.0032V307.2z" p-id="9703"></path></svg>