<?xml version="1.0" standalone="no"?><!DOCTYPE svg PUBLIC "-//W3C//DTD SVG 1.1//EN" "http://www.w3.org/Graphics/SVG/1.1/DTD/svg11.dtd"><svg t="1582969347038" class="icon" viewBox="0 0 1024 1024" version="1.1" xmlns="http://www.w3.org/2000/svg" p-id="4652" xmlns:xlink="http://www.w3.org/1999/xlink" width="200" height="200"><defs><style type="text/css"></style></defs><path d="M757.1 175.7c13 0 23.5 12 23.5 25.3-0.1 2.3-0.7 6.4-1 8.7-0.5 2-1.3 3.9-2.3 5.8-3.9 7.4-6.6 15.2-8.2 24L733 458.3c-8.1 49 19 97.2 64.3 114.5l13.3 5.1c4.7 1.8 9.6 2.9 14.6 3.1 66.6 3.8 118.7 62.5 118.7 133.8 0 73.6-56.3 133.5-125.6 133.5-60.7 0-112.6-46.1-123.4-109.5-3.9-23.1-23.9-39.9-47.3-39.9H376.4c-23.4 0-43.4 16.9-47.3 39.9-10.8 63.5-62.7 109.5-123.4 109.5-66.3 0-121.3-55.1-125.2-125.5-0.1-1.5-0.2-2.9-0.4-4.3v-57c0-18.2 5.3-35.7 15.4-50.4l78.4-114.7c8.7-12.8 10.7-28.8 5.6-43.1h220.3c4.5 0 8.6 2.9 11 7.2l-6.7 11.7-11.9 20.7-9.4 16.4c-12.4 21.7-12.4 47.5 0.1 69.2 14.3 24.7 42.9 40.7 72.7 40.7h84.7c44.6 0 152.3-18.1 188.1-185.8 0.4-1.8 0.6-3.5 0.8-5.3L743.6 282c9.8-31.5 4.7-65.8-14-93.1-3.2-4.7-6.8-9.1-10.7-13.2h38.2m61.3 619.2c43.4 0 78.6-35.9 78.6-80s-35.3-80-78.6-80c-43.4 0-78.6 35.9-78.6 80s35.2 80 78.6 80m-612.8 0c43.4 0 78.6-35.9 78.6-80s-35.3-80-78.6-80c-43.4 0-78.6 35.9-78.6 80s35.3 80 78.6 80m150-587c14.6 0 23.6 19.7 23.6 38v70.3H136.5v-70.3c0-15.4 22.1-37.6 31.8-38h187.3m401.5-80.2h-143c-16.9 0-30.6 14.3-30.6 32s13.7 32 30.6 32h30.6c39.4 0 66.4 41.7 51.6 80l-15 151.6c-29 135.6-107.7 147.8-141.2 147.8h-84.7c-21.1 0-42.1-19.1-31.2-38l9.4-16.4 11.9-20.8 15.3-26.7c0-35.4-27.4-64.1-61.3-64.1H134.1c-18.8 0-35.6 8.8-46.8 22.7-13.2 16.3-1.8 41.3 18.6 41.3h28.2L55.7 584C40.3 606.6 32 633.7 32 661.5v64.1h0.5c5.3 95.2 80.7 170.8 173.1 170.8 85.4 0 156.3-64.5 170.7-149.4h271.3c14.5 84.9 85.3 149.4 170.7 149.4 95.9 0 173.6-81.2 173.6-181.5 0-96.9-72.6-176.5-164-181.7l-13.3-5.1c-24.2-9.3-38.6-35.3-34.2-61.9l36.2-218.8c0.6-3.4 1.8-6.6 3.4-9.6 3-5.8 5.4-12.1 6.8-18.8 0.3-1.5 1.8-13.1 1.8-16.5 0-41.4-32-74.8-71.5-74.8z m61.3 619.2c-16.9 0-30.6-14.4-30.6-32 0-17.7 13.7-32 30.6-32 16.9 0 30.6 14.3 30.6 32 0 17.6-13.7 32-30.6 32z m-612.8 0c-16.9 0-30.6-14.4-30.6-32 0-17.7 13.7-32 30.6-32 16.9 0 30.6 14.3 30.6 32 0.1 17.6-13.7 32-30.6 32z m150-587H168.3c-37.9 0-79.8 46.4-79.8 86v118.3h338.8V245.9c0-45.3-28.3-86-71.7-86z" p-id="4653"></path></svg>