<?xml version="1.0" standalone="no"?><!DOCTYPE svg PUBLIC "-//W3C//DTD SVG 1.1//EN" "http://www.w3.org/Graphics/SVG/1.1/DTD/svg11.dtd"><svg t="1582969378944" class="icon" viewBox="0 0 1024 1024" version="1.1" xmlns="http://www.w3.org/2000/svg" p-id="5803" xmlns:xlink="http://www.w3.org/1999/xlink" width="200" height="200"><defs><style type="text/css"></style></defs><path d="M941.7 96.9c-9.5-9.2-24.7-9-33.9 0.5-0.8 0.8-81.6 83.9-158.4 162.6-8.6 8.8-9.1 22.6-1.3 32.1 34.6 41.8 55.1 90.7 59.9 142.6-145.2 0-271.7 0-371.8 0.1h-41.9l-179.3-0.1c6-64 35.8-123.5 85.4-169.6 56.3-52.3 131.3-81.1 211.1-81.1 56.8 0 101.8 11.7 137.7 35.9 28 18.9 35.8 44.1 35.1 53.3-0.9 13.2 9.1 24.7 22.3 25.6 13.2 0.9 24.7-9.1 25.6-22.3 1.9-27.9-14.7-68.5-56.2-96.5-43.4-29.2-98.8-44-164.5-44-92 0-178.5 33.3-243.7 93.9-31.9 29.6-56.9 64.1-74.4 102.6-14.9 32.6-23.7 66.9-26.5 102.2h-2c-25.5 0-44.6 7.4-56.7 21.9-12.8 15.4-14.3 34.9-14.3 48.1 0 89.6 25.4 179.2 71.6 252.5 29.3 46.5 65.7 84.9 107.6 114H168c-17.6 0-31.9-4.8-41.5-9.4-8.8-4.2-19.3-1.9-25.8 5.4-11.2 12.8-6.7 32.7 8.9 39.6 14.7 6.5 34.5 12.3 58.3 12.3H372l0.9 0.3h3.7c42 0 87.3-0.1 131.1-0.2h320.4c52.1 0 84.7-28.4 86.1-29.6 9.9-8.8 10.9-23.9 2.1-33.9-8.8-9.9-23.9-10.9-33.9-2.1-0.2 0.2-20.8 17.5-54.3 17.5h-83c42.4-29.2 78.9-67.8 108-114.6 45-72.4 69.8-161.8 69.8-251.8 0-22.1-6.6-39.6-19.5-52-11.7-11.2-27.6-17.2-47.3-17.7-2.2-28.2-8.3-55.8-18.2-82.4-9.8-26.2-23.1-51-39.7-74 72.1-74 143.1-146.9 143.9-147.7 9.3-9.6 9.1-24.8-0.4-34zM875 504.7c0 81.1-22.2 161.5-62.6 226.5-42.5 68.4-102.8 116.7-174.5 139.7-39.3 0-80.8 0.1-121.3 0.2h-137c-70.6-23.2-130.5-71.4-173.5-139.6-41.4-65.7-64.2-146.2-64.2-226.9 0-11.8 2-16 3.2-17.5 2.4-2.8 9.7-4.5 19.7-4.5h229.5l458.6 0.2c8.1 0 14.2 1.6 17.3 4.5 3.9 3.8 4.8 11.5 4.8 17.4z" fill="#333333" p-id="5804"></path></svg>