<?xml version="1.0" standalone="no"?><!DOCTYPE svg PUBLIC "-//W3C//DTD SVG 1.1//EN" "http://www.w3.org/Graphics/SVG/1.1/DTD/svg11.dtd"><svg t="1582969435271" class="icon" viewBox="0 0 1024 1024" version="1.1" xmlns="http://www.w3.org/2000/svg" p-id="7833" xmlns:xlink="http://www.w3.org/1999/xlink" width="200" height="200"><defs><style type="text/css"></style></defs><path d="M584.0896 820.8896c-97.82272 0-186.99776-36.85888-254.54592-97.408L94.14656 959.0784a20.5056 20.5056 0 0 1-29.03552 0 20.5056 20.5056 0 0 1 0-29.03552l235.60192-235.60704c-60.75392-67.54816-97.61792-156.7232-97.61792-254.54592 0-210.47296 170.5216-380.99968 380.99968-380.99968 210.47296 0 380.99968 170.52672 380.99968 380.99968-0.00512 210.47808-170.52672 380.99968-381.0048 380.99968z m0-720.80896c-187.61728 0-339.80928 152.192-339.80928 339.80928 0 187.61216 152.19712 339.8144 339.80928 339.8144s339.8144-152.20224 339.8144-339.8144c0-187.61728-152.19712-339.80928-339.8144-339.80928z m0 535.45984c-108.11904 0-195.64544-87.5264-195.64544-195.64544s87.5264-195.64544 195.64544-195.64544c108.12416 0 195.65056 87.5264 195.65056 195.64544s-87.5264 195.64544-195.65056 195.64544z m0-350.1056c-85.26336 0-154.45504 69.20192-154.45504 154.46016 0 85.26336 69.1968 154.46016 154.45504 154.46016s154.46016-69.20192 154.46016-154.46016c0-85.26336-69.20192-154.46016-154.46016-154.46016z" p-id="7834"></path></svg>