<?xml version="1.0" standalone="no"?><!DOCTYPE svg PUBLIC "-//W3C//DTD SVG 1.1//EN" "http://www.w3.org/Graphics/SVG/1.1/DTD/svg11.dtd"><svg t="1582969708072" class="icon" viewBox="0 0 1024 1024" version="1.1" xmlns="http://www.w3.org/2000/svg" p-id="10557" xmlns:xlink="http://www.w3.org/1999/xlink" width="200" height="200"><defs><style type="text/css"></style></defs><path d="M512.9 949.5h-4.7c-44.7 0.1-80.9-1.5-107.9-4.8-16.1-2-30.6-10.8-39.8-24.3-9.2-13.6-12.1-30.5-7.9-46.3 10.5-39.7 30-117.4 42.4-192.2 18.9-113.4 10.8-153 4.3-166.6-3.7-7.8-3-17 2-24.1 5-7.1 13.4-11 22-10.1 28.4 2.8 55.6 2.1 72.1 1.1 3.2-1.1 6.7-1.5 10.2-1.1 0.1 0 1 0.1 2.5 0.2 1.5-0.1 2.4-0.2 2.5-0.2 3.5-0.4 6.9 0 10.1 1.1 16.6 0.9 43.7 1.6 72.1-1.1 8.6-0.8 17 3 22 10.1s5.7 16.3 2 24.1c-6.5 13.6-14.6 53.2 4.3 166.6 12.5 74.8 31.9 152.6 42.4 192.2 4.2 15.9 1.3 32.7-7.9 46.3-9.1 13.5-23.6 22.4-39.8 24.3-25.7 3.1-60.4 4.8-102.9 4.8z m-4.7-48.1c42.8 0.1 77.1-1.4 102-4.4 3.2-0.4 5-2.4 5.8-3.6 0.8-1.2 2.1-3.8 1.2-7.1-10.7-40.5-30.6-119.8-43.4-196.6-7.1-42.6-11.1-79.3-12.1-109.3-0.6-19 0-35.5 1.9-49.7-22 0.5-40.9-0.4-52.2-1.1-0.9-0.1-1.8-0.2-2.6-0.3h-1.4c-0.9 0.2-1.7 0.3-2.6 0.3-11.3 0.8-30.2 1.7-52.2 1.1 1.9 14.1 2.5 30.6 1.9 49.7-0.9 30-5 66.7-12.1 109.3-12.8 76.8-32.7 156.1-43.4 196.6-0.9 3.4 0.4 5.9 1.2 7.1 0.8 1.2 2.6 3.2 5.8 3.6 25.1 3.1 59.4 4.6 102.2 4.4-0.1 0-0.1 0 0 0z" fill="#434462" p-id="10558"></path><path d="M760.4 391.8c36-19.8 60.4-58.3 60.4-102.5 0-64.5-52-116.7-116.1-116.7-10.3 0-20.4 1.4-29.9 3.9-26-51.4-79-86.6-140.3-86.6-72 0-132.6 48.6-151.3 114.9-13.6-5.6-28.5-8.7-44.1-8.7-64.1 0-116.1 52.3-116.1 116.8 0 15.5 3 30.4 8.5 44-28.8 28.2-46.7 67.6-46.7 111.2 0 85.7 69.1 155.1 154.3 155.1 30.6 0 59-8.9 83-24.3 18.8 8 39.4 12.4 61.1 12.4 55.6 0 99.7-10.5 127.7-54.3 14.7 47.5 63.6 63.5 115.7 63.5 64.1 0 116.1-52.3 116.1-116.7 0-52.9-34.7-97.4-82.3-112z" fill="#FFFFFF" p-id="10559"></path><path d="M339.1 647.1c-98.3 0-178.3-80.4-178.3-179.1 0-43.6 15.3-84.6 43.4-117.1-3.4-12.3-5.2-25.1-5.2-38 0-77.6 62.9-140.7 140.1-140.7 9.9 0 19.7 1 29.3 3.1 12.2-28 31.5-52.9 55.8-71.7C456.1 79 494.2 66 534.5 66c34.1 0 67.4 9.6 96.2 27.7 22.8 14.3 42 33.5 56.4 56.1 5.8-0.7 11.7-1.1 17.6-1.1 77.3 0 140.1 63.1 140.1 140.7 0 37.1-14.5 72-39.4 97.9 12.7 8.7 24 19.4 33.2 31.8 18.4 24.5 28.1 53.8 28.1 84.5 0 77.6-62.9 140.7-140.1 140.7-54.7 0-96-15.9-120.1-45.5-11.7 10.3-25.1 18.2-40.6 24.1-22.2 8.4-48.5 12.3-82.7 12.3-20.2 0-39.9-3.3-58.8-9.8-26.1 14.2-55.3 21.7-85.3 21.7z m0-427c-50.8 0-92.1 41.6-92.1 92.7 0 12.1 2.3 23.8 6.8 35 3.6 9 1.5 19.4-5.5 26.2-25.5 24.9-39.5 58.3-39.5 94 0 72.3 58.5 131.1 130.3 131.1 24.9 0 49.1-7.1 70-20.5 6.7-4.3 15-5 22.3-1.9 16.4 6.9 33.8 10.5 51.7 10.5 57.5 0 87.6-12.1 107.5-43.2 5-7.9 14.2-12.1 23.4-10.9 9.3 1.2 17 7.8 19.7 16.7 4.9 15.8 15.1 27.2 31.3 35 15.6 7.5 36.9 11.5 61.4 11.5 50.8 0 92.1-41.6 92.1-92.7 0-20.3-6.4-39.6-18.5-55.8-11.7-15.6-28.3-27.4-46.8-33-9.2-2.8-15.9-10.9-16.9-20.5-1-9.6 3.9-18.9 12.3-23.5 29.6-16.3 48-47.5 48-81.4 0-51.1-41.3-92.7-92.1-92.7-8 0-16 1-23.7 3.1-11 2.9-22.5-2.2-27.6-12.4-22.9-45.3-68.4-73.4-118.9-73.4-29.6 0-57.6 9.5-81 27.6-22.7 17.5-39.5 42.3-47.2 69.8-1.9 6.6-6.5 12.1-12.6 15.1s-13.3 3.2-19.7 0.6c-10.8-4.6-22.6-7-34.7-7z" fill="#434462" p-id="10560"></path><path d="M304.9 368.4s-14.7-98 69-85.3" fill="#FFFFFF" opacity=".5" p-id="10561"></path><path d="M304.8 392.4c-11.7 0-21.9-8.5-23.7-20.5-0.9-6.2-8.1-61 24.1-93.1 12.1-12.1 34.4-25.2 72.3-19.5 13.1 2 22.1 14.2 20.1 27.3-2 13.1-14.2 22.1-27.3 20.1-5.4-0.8-21.8-3.3-31.2 6-13.2 13.2-11.6 44.4-10.5 52 2 13.1-7.1 25.3-20.2 27.3-1.2 0.3-2.4 0.4-3.6 0.4z" fill="#434462" opacity=".5" p-id="10562"></path><path d="M757.2 483.2s-10.5 54.5-58 61.5" fill="#FFFFFF" opacity=".5" p-id="10563"></path><path d="M699.1 568.7c-11.7 0-22-8.6-23.7-20.5-1.9-13.1 7.1-25.3 20.2-27.2 29.8-4.4 37.6-40.9 38-42.4v0.2l47.1 9.1c-0.3 1.8-3.7 18.2-14.1 35.8-15 25.4-37.1 41-64 44.9-1.1 0-2.3 0.1-3.5 0.1z" fill="#434462" opacity=".5" p-id="10564"></path><path d="M541.2 748.7s11 75.6 21 101" fill="#FFFFFF" opacity=".5" p-id="10565"></path><path d="M562.2 873.7c-9.6 0-18.6-5.8-22.3-15.2-10.7-27.2-21.3-98.3-22.4-106.3-1.9-13.1 7.2-25.3 20.3-27.2 13.1-1.9 25.3 7.2 27.2 20.3 4.1 28.2 13 79.1 19.6 95.7 4.9 12.3-1.2 26.3-13.5 31.1-3 1.1-6 1.6-8.9 1.6z" fill="#434462" opacity=".5" p-id="10566"></path></svg>