<?xml version="1.0" standalone="no"?><!DOCTYPE svg PUBLIC "-//W3C//DTD SVG 1.1//EN" "http://www.w3.org/Graphics/SVG/1.1/DTD/svg11.dtd"><svg t="1582973711258" class="icon" viewBox="0 0 1024 1024" version="1.1" xmlns="http://www.w3.org/2000/svg" p-id="18534" xmlns:xlink="http://www.w3.org/1999/xlink" width="200" height="200"><defs><style type="text/css"></style></defs><path d="M359.112539 227.718795c1.013716 3.364362 11.606313 37.536872 28.457504 58.76614 2.629785 3.334978 6.096987 7.345768 10.093085 11.841378 19.760115 22.551506 56.503644 64.451765 59.206886 110.450961V971.110473a38.197991 38.197991 0 0 1-38.197991 38.197992H207.789727a38.197991 38.197991 0 0 1-38.197991-38.197992V408.83604c2.703242-45.955122 39.446772-87.899455 59.206887-110.450961 3.966714-4.554376 7.4633-8.52109 10.093084-11.900144 16.836499-21.273343 27.443788-55.460545 28.457504-58.76614H359.112539m14.015725-133.69297H253.333486v129.285509s-10.166542 34.157819-25.959942 54.108924C211.859283 297.048149 158.205796 347.822095 154.900201 408.424677v562.685796a53.051133 53.051133 0 0 0 52.889526 52.889527h210.82353a53.051133 53.051133 0 0 0 52.889526-52.889527V408.424677c-3.305595-60.602582-56.959082-111.376528-72.473343-131.004419C383.23604 257.469154 373.069498 223.311334 373.069498 223.311334V94.025825zM265.086714 213.02726V105.779053h96.964132v107.248207z" fill="#1A1A1A" p-id="18535"></path><path d="M366.458307 14.691535a2.938307 2.938307 0 0 1 2.938307 2.938307v70.519369a2.938307 2.938307 0 0 1-2.938307 2.938307H260.679254a2.938307 2.938307 0 0 1-2.938307-2.938307V17.629842a2.938307 2.938307 0 0 1 2.938307-2.938307h105.779053m0-14.691535H260.679254a17.629842 17.629842 0 0 0-17.629842 17.629842v70.519369a17.629842 17.629842 0 0 0 17.629842 17.629842h105.779053a17.629842 17.629842 0 0 0 17.629842-17.629842V17.629842a17.629842 17.629842 0 0 0-17.629842-17.629842zM286.154376 284.766026a7.345768 7.345768 0 0 0-5.759082 2.791392c-2.291879 2.938307-5.582783 6.640574-9.387891 10.989268C249.425538 323.213773 209.258881 368.963214 206.320574 422.719541V985.802009a7.345768 7.345768 0 0 0 14.691535 0V423.321894c2.747317-48.599598 40.651478-91.836786 61.028637-115.078795 3.937331-4.49561 7.345768-8.374175 9.85802-11.562238a7.345768 7.345768 0 0 0-5.759082-11.900144zM821.087862 443.684362c21.523099 32.982496 33.30571 73.457676 33.30571 114.84373 0 105.441148-74.471392 191.239713-166.014347 191.239713s-166.014347-85.783874-166.014347-191.239713c0-41.386055 11.753228-81.861234 33.30571-114.84373h265.417274m7.757131-14.691536H547.913458c-25.151908 35.377217-40.240115 80.450846-40.240115 129.535266 0 113.727174 80.906284 205.931248 180.705882 205.931248s180.705882-92.189383 180.705883-205.931248c0-49.084419-15.073515-94.143357-40.240115-129.535266z" fill="#1A1A1A" p-id="18536"></path><path d="M688.393917 986.051765a14.691535 14.691535 0 0 0 11.19495 5.876614 287.410502 287.410502 0 0 1 79.980717 14.441779H597.203558a287.410502 287.410502 0 0 1 79.980717-14.456471 14.691535 14.691535 0 0 0 11.19495-5.876614m11.753228-226.499397h-23.506456v217.699168a301.94043 301.94043 0 0 0-110.186513 25.254749V1021.061693h243.879483v-18.5701a301.94043 301.94043 0 0 0-110.186514-25.254749V759.552367zM846.577676 625.859397H530.195466a7.345768 7.345768 0 1 1 0-14.691535H846.577676a7.345768 7.345768 0 1 1 0 14.691535z" fill="#1A1A1A" p-id="18537"></path><path d="M577.384677 456.906743a7.345768 7.345768 0 0 0-6.993171 5.097963 238.326083 238.326083 0 0 0-11.29779 72.972855 233.786399 233.786399 0 0 0 29.838508 115.357934c19.098996 33.614232 45.984505 60.411593 77.791678 77.497848a7.345768 7.345768 0 0 0 6.949097-12.943243c-60.67604-32.585825-99.902439-103.208034-99.902439-179.912539a223.64924 223.64924 0 0 1 10.592596-68.477245 7.345768 7.345768 0 0 0-6.99317-9.593573z" fill="#1A1A1A" p-id="18538"></path></svg>