<?xml version="1.0" standalone="no"?><!DOCTYPE svg PUBLIC "-//W3C//DTD SVG 1.1//EN" "http://www.w3.org/Graphics/SVG/1.1/DTD/svg11.dtd"><svg t="1582975985953" class="icon" viewBox="0 0 1024 1024" version="1.1" xmlns="http://www.w3.org/2000/svg" p-id="4146" xmlns:xlink="http://www.w3.org/1999/xlink" width="200" height="200"><defs><style type="text/css"></style></defs><path d="M611.08 464.46l-69.37-69.37-23.12 23.12 69.37 69.37 23.12-23.12z m-23.13 69.37L472.34 418.22l69.37-69.37 115.61 115.61-69.37 69.37zM334.78 859.18c-31.92 31.92-83.68 31.92-115.61 0l-46.24-46.24c-31.92-31.92-31.92-83.68 0-115.61L385.05 485.2c-40.36-93.59-20.52-203.93 53.21-277.66 78.35-78.35 197.89-95.72 294.58-45.15l19.72 10.31-112.57 112.58L765.5 410.8l101.51-101.51 7.09 27.83c21.79 85.49-2.35 176.82-65.9 240.37-67.22 67.22-165.23 90.02-253.82 62.08l-219.6 219.61z m126.6-628.52c-66.61 66.61-82.68 167.57-42.04 250.89l5.11 10.48-228.4 228.42c-19.15 19.15-19.15 50.21 0 69.37l46.24 46.24c19.15 19.15 50.21 19.15 69.37 0L545.8 601.92l9.77 3.54c79.3 28.69 168.83 9.6 229.52-51.08 48.04-48.04 70.2-114.31 62.76-179.67l-82.34 82.34-171.77-171.77L697.1 181.92c-79.97-31.78-173.01-13.97-235.72 48.74z" p-id="4147"></path></svg>