<?xml version="1.0" standalone="no"?><!DOCTYPE svg PUBLIC "-//W3C//DTD SVG 1.1//EN" "http://www.w3.org/Graphics/SVG/1.1/DTD/svg11.dtd"><svg t="1582975948829" class="icon" viewBox="0 0 1024 1024" version="1.1" xmlns="http://www.w3.org/2000/svg" p-id="2786" xmlns:xlink="http://www.w3.org/1999/xlink" width="200" height="200"><defs><style type="text/css"></style></defs><path d="M727.04 95.744h-418.304c-49.152 0-89.6 35.328-89.6 78.336v677.376c0 43.008 40.448 78.336 89.6 78.336h418.304c49.152 0 89.6-35.328 89.6-78.336V173.568c0-43.008-40.448-77.824-89.6-77.824z m-328.192 38.912h239.104v26.112h-239.104v-26.112z m119.296 742.4c-32.768 0-59.904-23.552-59.904-52.224s26.624-52.224 59.904-52.224c32.768 0 59.904 23.552 59.904 52.224s-27.136 52.224-59.904 52.224z m239.104-156.672h-477.696V199.68h477.696V720.384z" fill="" p-id="2787"></path><path d="M500.224 496.64v-29.696h-57.344c-12.288 0-17.92-4.608-17.92-13.312 0-8.704 6.144-13.824 17.92-14.848h39.424l-67.584-103.424c-1.024 0-2.048-1.024-3.072-3.072-2.048-3.072-3.072-7.68-3.072-13.312 0-7.68 5.12-12.8 14.848-14.848 7.68 1.024 14.336 5.12 19.456 11.264l75.776 113.152 75.264-112.64c4.608-6.656 10.752-10.24 19.456-11.264 8.704 2.048 13.824 7.168 14.848 14.848 0 3.072-1.536 7.68-5.12 13.312-1.024 1.024-1.536 2.048-1.536 3.072l-67.584 103.424h39.424c10.752 1.024 16.896 6.144 17.92 14.848-1.024 8.704-7.168 13.312-17.92 13.312h-57.344v29.696h57.344c10.752 1.024 16.896 6.144 17.92 14.848-1.024 8.704-7.168 13.312-17.92 13.312h-57.344v65.536c-1.024 10.752-7.168 16.384-17.92 16.384-12.288 0-17.92-5.632-17.92-16.384v-65.536h-57.344c-12.288 0-17.92-4.608-17.92-13.312 0-8.704 6.144-13.824 17.92-14.848h57.344z" fill="" p-id="2788"></path></svg>