<?xml version="1.0" standalone="no"?><!DOCTYPE svg PUBLIC "-//W3C//DTD SVG 1.1//EN" "http://www.w3.org/Graphics/SVG/1.1/DTD/svg11.dtd"><svg t="1582975970970" class="icon" viewBox="0 0 1024 1024" version="1.1" xmlns="http://www.w3.org/2000/svg" p-id="3289" xmlns:xlink="http://www.w3.org/1999/xlink" width="200" height="200"><defs><style type="text/css"></style></defs><path d="M61.955301 585.718352c0.306649-66.254139 29.443287-133.079624 69.966888-198.266984l0 0c40.740352-65.10046 93.959416-128.512853 146.896803-184.668555l0 0C384.704753 90.61125 489.564688 7.711171 490.283865 7.09188l0 0c11.953313-9.47615 28.77705-9.434198 40.738355 0l0 0c1.193633 1.325482 236.25349 185.997033 358.353685 380.35849l0 0c40.518606 65.18736 69.65025 132.013844 70.009839 198.266984l0 0c-0.134846 242.721084-201.49329 437.837676-448.737196 438.272178l0 0 0-32.802441 0-32.857378c212.209021-0.049943 382.658856-167.488226 383.058398-372.612359l0 0c1.553222-80.422916-72.726728-197.158254-160.980677-296.179874l0 0c-85.402214-97.148765-181.107632-180.16571-222.044759-214.28864l0 0c-4.921365 4.102303-10.63782 8.93477-17.075449 14.433474l0 0c-23.393215 19.929181-55.846056 48.539422-91.89478 82.810182l0 0c-72.009549 68.511554-158.285763 160.353395-214.118834 249.768016l0 0c-37.472094 59.513857-60.272987 117.760165-59.966339 163.457841l0 0c0.359588 205.124133 170.854372 372.562416 383.023438 372.612359l0 0 0 32.857378 0 32.802441C263.49354 1023.556028 62.082156 828.444431 61.955301 585.718352L61.955301 585.718352zM453.401096 835.271614c-8.207602-3.840603-12.70745-12.780366-10.937477-21.675182l0 0 34.365651-171.958108L305.440511 641.638324c-7.606291 0-14.505391-4.335036-17.774648-11.192185l0 0c-3.28424-6.84716-2.304362-14.987839 2.474167-20.921045l0 0 254.091066-312.740912c5.713458-7.031948 15.532216-9.241419 23.717843-5.398818l0 0c8.175639 3.848593 12.690469 12.830309 10.917499 21.672185l0 0-34.415594 171.923148 171.478657 0c7.566337 0 14.513382 4.379985 17.724705 11.234137l0 0c3.286237 6.854152 2.312352 14.992833-2.462181 20.876097l0 0L477.049019 829.87779c-3.835608 4.719596-9.489135 7.271674-15.289494 7.271674l0 0C458.939754 837.149464 456.07004 836.530173 453.401096 835.271614L453.401096 835.271614zM346.796158 602.274396l154.095561 0c5.925216 0 11.498834 2.651964 15.217576 7.206748l0 0c3.760694 4.554785 5.258978 10.527946 4.100305 16.371255l0 0-23.52806 117.385593 177.806412-218.848419-154.04362 0c-5.943195 0-11.498834-2.656958-15.22257-7.211743l0 0c-3.7557-4.599733-5.256981-10.564903-4.115288-16.361266l0 0 23.468129-117.320668L346.796158 602.274396 346.796158 602.274396z" p-id="3290"></path></svg>