<?xml version="1.0" standalone="no"?><!DOCTYPE svg PUBLIC "-//W3C//DTD SVG 1.1//EN" "http://www.w3.org/Graphics/SVG/1.1/DTD/svg11.dtd"><svg t="1583059443781" class="icon" viewBox="0 0 1024 1024" version="1.1" xmlns="http://www.w3.org/2000/svg" p-id="2369" xmlns:xlink="http://www.w3.org/1999/xlink" width="200" height="200"><defs><style type="text/css"></style></defs><path d="M796.97894844 355.0901375a588.58643344 588.58643344 0 0 0-68.04549094-64.55145375c-3.45874406-2.82346406-6.10574156-4.79988937-9.17625844-7.16454094 43.02253781-15.67022719 73.12772625-53.18700938 73.12772625-97.62127875 0-59.7868575-53.57523562-105.56227312-117.17377031-105.56227312a106.40931188 106.40931188 0 0 0-40.19907281 7.79982094 83.39807812 83.39807812 0 0 0-13.2702825 6.7057275c-2.25877125 0.98821219-6.98807438-0.14117344-8.29392656-1.83525188l-0.03529313 0.03529313a134.46748875 134.46748875 0 0 0-22.83476812-27.03467062C570.85474813 47.22664531 546.92588844 35.72102844 519.53828469 35.72102844c-27.35231063 0-51.31646437 11.50561687-71.53952812 30.14048157a133.62044906 133.62044906 0 0 0-22.3759547 26.4699778l-0.03529312-0.03529312c-1.870545 2.29406438-6.63514125 3.49403719-8.29392656 2.6469975a87.91562063 87.91562063 0 0 0-13.729095-6.95278032 106.93871156 106.93871156 0 0 0-40.19907375-7.79982093c-63.59853375 0-117.13847625 45.77541563-117.13847625 105.56227312 0 37.97559563 22.09360875 70.868955 55.33990125 89.43323251-3.56462345 2.71758469-7.12924781 5.43516844-10.623285 8.2233403a541.75221844 541.75221844 0 0 0-67.9043175 63.91617375C160.18186156 417.80633844 121.99450625 498.41624563 121.99450625 587.88477125c0 248.11192781 174.41950875 366.09744375 384.52054875 366.09744375 88.05679406 0 174.13716281-18.63486469 243.77085188-62.57502844 94.55076188-59.68097719 148.30246406-159.91396125 148.30246406-303.52241531 0-84.1392375-38.43440812-162.24331875-101.6094225-232.79463375z m-290.46389344 543.44629688c-184.90162031 0-332.462925-99.77417062-332.46292499-310.68695625 0-73.23360563 32.25808031-141.31438969 86.75094187-202.40709938a488.74167562 488.74167562 0 0 1 61.16329593-57.5986725 432.2018025 432.2018025 0 0 1 27.03467063-19.62307687c29.32873594-20.57599594 26.57585812-56.78692594-2.15289094-72.24539344l0.07058625-0.31764-0.17646656-0.10588032-0.35293313-0.17646656-0.98821218-0.49410561-1.37643938-0.70586626v0.03529312l-0.74115937-0.38822625-0.56469282-0.21175969-0.10587937-0.07058625-0.03529313 0.03529313-2.99993156-1.23526594c-25.37588531-7.87040719-41.29316625-26.92879125-41.29316531-46.62245437 0-26.18763188 28.02288375-50.11649156 65.0808525-50.1164925a57.45749906 57.45749906 0 0 1 28.02288375 7.23512718l3.17639719 1.94113219c23.54063344 12.17619001 53.8575825 4.5175425 70.72778156-16.65843937l2.188185-3.21169125a82.58633156 82.58633156 0 0 1 14.57613469-17.11725188c11.50561687-10.623285 24.07003312-16.6937325 37.51678218-16.69373344 13.37616187 0 25.94057813 6.07044844 37.48148907 16.69373344 7.30571437 6.7057275 12.38794969 13.41145594 14.54084062 17.11725188l1.76466563 2.64699843c16.41138656 21.74067563 47.04597469 29.01109594 70.65719531 17.50547907l3.70579687-2.22347907a58.057485 58.057485 0 0 1 27.98758969-7.23512718c37.09326281 0 65.11614656 23.96415375 65.11614656 50.15178562 0 19.65837001-15.95257313 38.716755-41.29316625 46.58716125l-3.70579687 1.48231875a81.3157725 81.3157725 0 0 1-13.97614875 5.78810156c-36.49327687 11.96443031-42.70489781 51.45763781-13.12910906 73.5159525 2.85875719 1.94113219 5.64692906 3.91755655 8.4351 5.89398188a531.69362719 531.69362719 0 0 1 82.092225 74.29240594c54.88108781 61.23388313 87.28034156 127.09118812 87.28034156 194.53669218 0 221.81841655-140.82028313 310.68695625-340.01569219 310.68695626z m108.4916175-326.32189032c11.96443031 0 21.67008844-10.51740469 21.67008844-23.54063343 0-12.9526425-9.70565906-23.50534031-21.67008844-23.50534125h-88.62148687l82.26869156-89.15088563a24.91707281 24.91707281 0 0 0 0-33.2462925 20.57599594 20.57599594 0 0 0-30.70517438 0l-71.39835468 77.39821594-71.43364688-77.39821594a20.57599594 20.57599594 0 0 0-30.70517531 0 24.98765906 24.98765906 0 0 0 0 33.2462925l82.30398562 89.15088563H398.05873156c-11.96443031 0-21.7053825 10.55269781-21.7053825 23.50534125 0 13.02322969 9.74095219 23.54063344 21.7053825 23.54063343h86.786235v23.50534032H398.05873156c-11.96443031 0-21.7053825 10.51740469-21.7053825 23.50534125 0 12.98793562 9.74095219 23.50534031 21.7053825 23.50534031h86.786235v67.72785095c0 9.91741875 9.70565906 17.96429156 21.67008844 17.96429155 11.99972345 0 21.7053825-8.04687375 21.7053825-17.96429155v-67.72785095h86.786235c11.96443031 0 21.67008844-10.51740469 21.67008844-23.50534031 0-12.98793562-9.70565906-23.50534031-21.67008844-23.50534125h-86.786235v-23.50534032h86.786235z" p-id="2370"></path></svg>