<?xml version="1.0" standalone="no"?><!DOCTYPE svg PUBLIC "-//W3C//DTD SVG 1.1//EN" "http://www.w3.org/Graphics/SVG/1.1/DTD/svg11.dtd"><svg t="1583059494784" class="icon" viewBox="0 0 1024 1024" version="1.1" xmlns="http://www.w3.org/2000/svg" p-id="3741" xmlns:xlink="http://www.w3.org/1999/xlink" width="200" height="200"><defs><style type="text/css"></style></defs><path d="M652.513 546.593c-17.826-2.314-33.128 1.262-48.143 6.542-10.959-34.487-42.824-59.695-80.869-59.695h-23.123c-37.070 0-68.132 23.947-79.838 57.038-10.865-4.743-22.493-8.493-36.265-8.493-10.098 0-20.198 1.95-30.871 5.986-29.57 11.189-43.896 48.966-35.652 94.011 12.663 69.295 75.685 139.243 187.942 139.243 130.102 0 196.969-94.523 201.177-158.408 2.755-41.526-18.572-71.458-54.359-76.222zM500.38 542.616h23.123c16.698 0 30.66 11.438 34.793 26.873-14.364 3.922-31.158 6.79-52.599 6.79-16.372 0-29.302-2.372-40.415-5.892 3.803-15.893 18.035-27.771 35.098-27.771zM505.695 732.050c-84.579 0-126.793-47.589-138.097-92.117-6.828-26.931-0.363-44.030 3.195-45.963 5.031-1.894 9.43-2.811 13.485-2.811 8.243 0 16.144 3.747 29.379 10.403 20.123 10.082 47.626 23.91 92.039 23.91 48.334 0 79.376-12.203 102.061-21.078 16.105-6.311 26.568-10.654 38.292-9.048 8.798 1.168 12.758 9.317 11.783 24.234-3.023 45.332-53.441 112.468-152.138 112.468z" p-id="3742"></path><path d="M791.834 197.851v-47.817c0-13.58-10.998-24.598-24.597-24.598h-511.913c-13.581 0-24.598 11.017-24.598 24.598v47.817c-44.986 7.555-79.415 46.671-79.415 93.779v553.113c0 52.486 42.691 95.196 95.196 95.196h529.567c52.485 0 95.196-42.71 95.196-95.196v-553.113c0-47.108-34.448-86.224-79.435-93.779zM822.093 291.631v63.292h-30.259v-106.346c17.598 6.465 30.259 23.239 30.259 43.055zM742.658 196.438v158.485h-21.441v-180.309h21.441v21.824zM672.062 196.438v158.485h-21.442v-180.309h21.442v21.824zM279.92 174.613h321.525v180.309h-321.525v-180.309zM230.726 248.577v106.346h-30.259v-63.292c0-19.816 12.662-36.59 30.259-43.055zM776.074 890.763h-529.567c-25.382 0-46.039-20.657-46.039-46.020v-440.646h621.627v440.646c-0.001 25.363-20.637 46.020-46.020 46.020z" p-id="3743"></path></svg>